<svg xmlns="http://www.w3.org/2000/svg" width="100" height="100" viewBox="0 0 271.493 275.391"><path data-name="Path 188" d="M271.494 134.638v31.224a29.9 29.9 0 0 1-29.9 29.9H148.3a9.016 9.016 0 0 0-9 9.451 9.184 9.184 0 0 0 9.255 8.56h22.063a9.009 9.009 0 0 1 9.009 9.009V245.3a30.093 30.093 0 0 1-30.091 30.094h-26.174a30.094 30.094 0 0 1-30.1-30.094v-79.316H29.9A29.9 29.9 0 0 1 0 136.079v-26.555a29.9 29.9 0 0 1 29.9-29.9h90.668a9.012 9.012 0 0 0 9-9.434 9.182 9.182 0 0 0-9.255-8.581h-18.039a9.009 9.009 0 0 1-9.01-9.009V30.1A30.094 30.094 0 0 1 123.362 0h26.173a30.091 30.091 0 0 1 30.091 30.01v74.725h61.962a29.908 29.908 0 0 1 29.9 29.9Zm0 0" fill="#ffda44"/><path data-name="Path 189" d="M271.494 134.638v31.224a29.9 29.9 0 0 1-29.9 29.9h-93.296a9.016 9.016 0 0 0-9 9.451 9.184 9.184 0 0 0 9.255 8.56h22.065a9.009 9.009 0 0 1 9.009 9.009V245.3a30.093 30.093 0 0 1-30.091 30.094h-13.088V0h13.088a30.091 30.091 0 0 1 30.091 30.01v74.725h61.962a29.908 29.908 0 0 1 29.9 29.9Zm0 0" fill="#ffcd00"/><path data-name="Path 190" d="M171.185 235.139a9 9 0 1 1-9-9 9 9 0 0 1 9 9Zm0 0" fill="#4895ff"/><path data-name="Path 191" d="M171.185 235.139a9 9 0 0 1-9 9.005v-18.008a9 9 0 0 1 9 9.003Zm0 0" fill="#2682ff"/><path data-name="Path 192" d="M179.627 30.01v87.07a18.01 18.01 0 0 1-18.015 18.015h-59.338a9.013 9.013 0 0 0-9.009 9.005v21.885H29.9A29.906 29.906 0 0 1 0 136.08v-26.555a29.906 29.906 0 0 1 29.9-29.9h90.668a9.012 9.012 0 0 0 9-9.434 9.182 9.182 0 0 0-9.255-8.581h-18.039a9.009 9.009 0 0 1-9.01-9.01V30.1A30.094 30.094 0 0 1 123.362 0h26.173a30.091 30.091 0 0 1 30.091 30.01Zm0 0" fill="#4895ff"/><path data-name="Path 193" d="M179.627 30.01v87.07a18.01 18.01 0 0 1-18.015 18.015h-25.164V0h13.088a30.091 30.091 0 0 1 30.091 30.01Zm0 0" fill="#2682ff"/><path data-name="Path 194" d="M121.792 42.328a9.007 9.007 0 1 1-9.005-9.011 9 9 0 0 1 9.005 9.011Zm0 0" fill="#ffda44"/><path data-name="Path 195" d="M121.796 42.328a9 9 0 0 1-9.005 9V33.316a9.011 9.011 0 0 1 9.005 9.012Zm0 0" fill="#ffcd00"/></svg>