<svg xmlns="http://www.w3.org/2000/svg" width="60" height="55" fill="none"><path fill="#73B655" fill-rule="evenodd" d="M28.531.234c-.294.134-1.605 1.275-3.341 2.908-1.572 1.479-3.18 2.987-3.574 3.351l-.717.663-.06-.74c-.065-.815-.279-1.24-.752-1.493-.45-.24-5.726-.24-6.176 0-.733.392-.726.34-.688 5.113l.034 4.34-3.745 3.537c-3.528 3.33-3.76 3.576-4.003 4.217-.981 2.6 1.752 5.052 4.19 3.758.272-.145 1.13-.861 1.904-1.592l1.41-1.328v3.773c0 3.534-.013 3.769-.204 3.696-.111-.043-1.002-.11-1.978-.148l-1.776-.069-.076-.647c-.106-.903-.413-1.522-1.039-2.096-.809-.742-1.443-.885-3.697-.835-1.558.034-1.92.078-2.369.284-.636.293-1.205.84-1.556 1.497-.259.483-.26.508-.292 7.725-.021 4.705.008 7.317.085 7.46.173.324.733.49 1.074.32.571-.284.57-.265.572-7.669.002-7.644-.028-7.325.716-7.71.51-.263 3.643-.24 4.101.03.724.428.695-.058.693 11.366-.002 8.033-.035 10.48-.147 10.697-.08.155-.294.393-.476.528-.302.224-.487.246-2.121.246-2.536 0-2.666-.095-2.765-2.035-.057-1.091-.09-1.236-.337-1.436-.397-.321-.885-.285-1.178.087-.206.262-.243.473-.243 1.402 0 1.823.569 2.844 1.934 3.47.538.246.751.269 2.58.27 1.944 0 2.009-.008 2.659-.327 1.019-.5 1.437-1.08 1.814-2.51l.098-.374 6.285 2.38c3.456 1.31 6.483 2.419 6.726 2.464.244.046.792.081 1.219.079.875-.006 19.03-2.607 20.12-2.883 1.019-.258 2.713-1.132 3.457-1.783 4.306-3.763 12.273-11.056 12.542-11.48a3.654 3.654 0 0 0-.498-4.531c-1.08-1.079-2.743-1.387-4.103-.76-.373.172-2.36 1.445-4.416 2.83-2.055 1.384-3.769 2.485-3.807 2.447-.09-.09-.09-15.74.001-15.74.038 0 .726.611 1.529 1.357.802.746 1.68 1.457 1.952 1.58 1.111.504 2.65.163 3.47-.77.539-.614.744-1.159.751-1.99.01-1.19-.217-1.524-2.503-3.693-3.969-3.765-3.79-3.624-4.332-3.4-.449.186-.657.697-.448 1.097.086.164 1.29 1.357 2.677 2.651 1.386 1.294 2.618 2.537 2.738 2.763.559 1.054-.512 2.234-1.603 1.767-.205-.088-4.91-4.414-10.456-9.614-5.545-5.2-10.208-9.486-10.362-9.527a1.046 1.046 0 0 0-.549.032c-.147.057-4.687 4.272-10.088 9.366-5.402 5.093-10.002 9.406-10.224 9.584-.593.474-1.207.447-1.73-.077-.316-.315-.399-.492-.398-.85 0-.248.092-.588.205-.755.38-.565 21.648-20.524 22.062-20.704.795-.345.813-.33 7.23 5.677 7.493 7.015 6.89 6.48 7.313 6.48.449 0 .82-.37.82-.815 0-.417.64.219-6.89-6.849C33.91 2.67 31.548.54 31.166.332c-.743-.402-1.873-.444-2.636-.098Zm-9.422 7.432v1.208l-1.495 1.404c-.822.772-1.772 1.66-2.11 1.973l-.615.569V6.458h4.22v1.208ZM38.38 15.19l6.514 6.096.003 9.347.003 9.346-1.222.82-1.222.82-1.266-.084-1.266-.085-.144-.86c-.358-2.145-1.784-3.82-3.8-4.463l-.422-.134-.077-2.126c-.042-1.17-.077-3.814-.077-5.877v-3.75l-.474-.452-.474-.45h-4.582c-4.36 0-4.601.01-4.957.231-.707.437-.703.405-.767 5.944l-.059 5.062-1.23-.399c-.681-.22-2.253-.913-3.518-1.55-1.409-.711-2.724-1.284-3.429-1.495l-1.143-.341.004-4.752.003-4.752 7.508-7.065 7.507-7.066 1.037.97 7.55 7.065Zm-4.617 15.181c0 4.24-.031 5.392-.147 5.386a445.21 445.21 0 0 1-3.898-.445l-3.751-.436-.03-4.949-.031-4.948H33.763v5.392Zm-20.926 1.82c2.188.329 3.871.916 6.076 2.121 1.775.97 3.392 1.586 5.178 1.973.452.098 3.116.444 5.92.77 2.805.324 5.285.647 5.51.716.664.203 1.554.874 1.965 1.48.374.554.743 1.817.578 1.981-.046.046-4.149-.272-9.118-.706-8.34-.73-9.057-.776-9.317-.606a.817.817 0 0 0 .17 1.454c.168.064 4.685.49 10.037.947 10.825.924 11.006.938 12.265.97l.895.02 6.293-4.213 6.294-4.213h.746c.834 0 1.208.196 1.672.878.36.53.36 1.427 0 2.007-.33.528-12.088 11.122-12.978 11.69a7.089 7.089 0 0 1-2.262.951c-.275.061-4.745.725-9.936 1.474-6.98 1.009-9.59 1.344-10.023 1.29-.324-.04-3.536-1.185-7.178-2.558l-6.591-2.485-.003-8.06-.003-8.06 1.319.002c.725 0 1.846.08 2.49.176Z" clip-rule="evenodd"/></svg>