<svg xmlns="http://www.w3.org/2000/svg" width="60" height="60" fill="none"><path fill="#00CA81" fill-rule="evenodd" d="M20.303.257a10.087 10.087 0 0 0-6.599 5.452c-.667 1.42-.955 2.68-.959 4.206-.004 1.47.187 2.547.664 3.743.767 1.925 1.08 2.28 8.757 9.97 6.794 6.805 7.265 7.25 7.675 7.25.409 0 .873-.437 7.445-6.998 3.855-3.85 7.287-7.366 7.627-7.815 1.855-2.45 2.48-5.533 1.745-8.599-.247-1.027-1.16-2.827-1.903-3.75C42.846 1.343 40.036-.004 37.01 0c-2.592.004-4.805.802-6.555 2.363l-.612.545-.611-.545C28.072 1.33 26.444.52 24.845.18c-1.224-.26-3.391-.223-4.542.077Zm4.38 1.942c1.232.29 2.613 1.076 3.754 2.137 1.329 1.234 1.481 1.239 2.721.087 1.761-1.636 3.25-2.294 5.4-2.384 1.61-.067 2.635.126 3.874.73a8.032 8.032 0 0 1 4.227 9.36c-.547 2-.535 1.987-7.99 9.46l-6.826 6.84-6.823-6.84c-5.137-5.151-6.921-7.017-7.22-7.553-2.268-4.052-.813-9.03 3.259-11.149.533-.278 1.3-.584 1.703-.682.978-.237 2.928-.24 3.92-.006Zm2.456 4.886c-.297.296-.308.37-.308 2.008v1.7h-1.7c-1.639 0-1.712.012-2.01.308-.305.306-.307.328-.307 2.705 0 2.377.002 2.399.308 2.704.297.297.37.309 2.008.309h1.7v1.7c0 1.638.012 1.712.309 2.008.305.306.327.308 2.704.308 2.377 0 2.4-.002 2.705-.308.296-.297.308-.37.308-2.008v-1.7h1.7c1.638 0 1.712-.012 2.009-.309.305-.305.308-.327.308-2.704 0-2.377-.003-2.4-.308-2.705-.297-.296-.37-.308-2.009-.308h-1.7v-1.7c0-1.638-.012-1.712-.308-2.008-.306-.306-.328-.309-2.705-.309-2.377 0-2.399.003-2.704.309Zm3.708 3.4c0 1.638.012 1.712.309 2.008.296.297.37.309 2.008.309h1.7v2.008h-1.7c-1.638 0-1.712.011-2.008.308-.297.297-.309.37-.309 2.009v1.7H28.84v-1.7c0-1.638-.011-1.712-.308-2.009-.297-.297-.37-.308-2.009-.308h-1.7v-2.008h1.7c1.638 0 1.712-.012 2.009-.309.297-.296.308-.37.308-2.008v-1.7h2.008v1.7ZM4.723 11.838c-1.59.595-2.573 1.87-2.714 3.523-.062.727-.097.795-.669 1.303a3.952 3.952 0 0 0-1.333 2.764c-.049.78.12 1.487 2.277 9.496 1.64 6.089 2.436 8.842 2.686 9.29.272.487 1.268 1.453 4.28 4.15 2.638 2.363 4.011 3.679 4.19 4.016.216.412.273.78.313 2.04.043 1.364.025 1.538-.159 1.538-.113 0-.345.139-.514.308l-.309.308v8.81l.309.308.308.308h14.835l.308-.308.308-.308v-8.81l-.308-.308c-.17-.17-.392-.308-.494-.308-.16 0-.192-.754-.23-5.555-.044-5.403-.053-5.578-.335-6.433-.609-1.846-1.742-3.52-3.09-4.56-.568-.44-9.035-5.475-9.762-5.806-.267-.122-.585-.95-2.524-6.56-1.22-3.532-2.342-6.697-2.494-7.032-.616-1.364-1.922-2.227-3.484-2.3-.589-.027-1.11.02-1.395.126Zm47.715.036c-.757.275-1.55.86-1.953 1.44-.383.553-.619 1.188-3.19 8.588l-1.92 5.524-3.341 1.94c-5.204 3.023-6.242 3.655-6.932 4.221-1.291 1.06-2.29 2.575-2.889 4.383-.284.857-.292 1.019-.333 6.433-.037 4.816-.068 5.555-.23 5.555-.102 0-.325.139-.494.308l-.309.308v8.81l.309.308.308.308h14.835l.308-.308.308-.308v-8.81l-.308-.308c-.17-.17-.401-.308-.515-.308-.184 0-.202-.173-.158-1.538.04-1.268.096-1.628.318-2.05.186-.354 1.456-1.568 4.094-3.917 3.765-3.352 4.106-3.693 4.532-4.525.117-.23 1.236-4.212 2.487-8.85 2.022-7.498 2.274-8.542 2.282-9.435.008-.858-.043-1.11-.344-1.723a4.683 4.683 0 0 0-.957-1.256c-.576-.511-.606-.572-.671-1.328-.122-1.43-.938-2.628-2.25-3.303-.718-.37-2.191-.448-2.987-.16ZM6.866 13.928c.268.137.595.405.728.597.132.191 1.149 2.975 2.259 6.185 1.11 3.21 2.055 5.93 2.1 6.045.066.165-.05.247-.58.402-.365.107-.675.182-.69.168-.014-.014-.683-2.053-1.486-4.531-.803-2.478-1.566-4.71-1.694-4.958-.522-1.009-1.851-1.953-2.965-2.105-.567-.078-.576-.087-.501-.469.162-.83 1.043-1.582 1.854-1.582.269 0 .707.112.975.248Zm47.833.035c.528.36.854.805.95 1.3.075.381.066.39-.5.467-1.162.16-2.43 1.052-2.954 2.078-.135.264-.903 2.508-1.706 4.986-.803 2.478-1.472 4.517-1.486 4.531-.014.014-.325-.061-.69-.168-.529-.155-.646-.237-.58-.402.045-.115.984-2.806 2.087-5.982 1.102-3.176 2.103-5.944 2.224-6.151.506-.866 1.858-1.202 2.655-.66ZM4.858 17.945c.267.137.596.405.73.597.133.191.965 2.59 1.85 5.328l1.606 4.981-.284.662c-.24.556-.277.824-.232 1.674.062 1.18.474 2.09 1.246 2.748.677.578 6.65 3.973 6.989 3.972.158 0 .426-.138.596-.308.396-.396.407-.985.026-1.364-.156-.154-1.554-1.008-3.107-1.898-1.554-.89-2.957-1.735-3.119-1.88-.495-.44-.68-.93-.62-1.643.097-1.18.943-1.903 2.093-1.792.477.046 1.43.552 5.406 2.87 5.425 3.162 6.055 3.647 6.94 5.338.807 1.543.844 1.88.846 7.613l.002 5.115H15.813l-.057-1.663c-.067-1.948-.287-2.667-1.131-3.698-.295-.36-1.863-1.821-3.485-3.249-3.824-3.365-4.253-3.78-4.523-4.382-.123-.276-1.224-4.228-2.446-8.782-2.355-8.78-2.375-8.885-1.847-9.597.641-.867 1.61-1.112 2.534-.642Zm51.85.035c.578.393.884.848.96 1.423.05.378-.431 2.342-2.086 8.525-1.183 4.418-2.24 8.311-2.35 8.651-.268.825-.614 1.18-4.596 4.703-2.003 1.772-3.588 3.276-3.832 3.635-.659.971-.902 1.944-.902 3.608v1.433H33.86l.002-5.115c.002-5.727.04-6.063.843-7.613.863-1.666 1.515-2.167 6.948-5.338 5.256-3.068 5.48-3.163 6.44-2.708 1.227.583 1.463 2.355.434 3.275-.162.145-1.565.99-3.118 1.88-1.554.89-2.952 1.742-3.107 1.896-.382.379-.371.968.026 1.364.169.17.437.308.596.308.465 0 6.467-3.488 7.14-4.15.82-.808 1.162-1.752 1.087-3.005-.034-.55-.153-1.137-.287-1.412l-.23-.472 1.548-4.8c.851-2.641 1.667-5.026 1.813-5.3.52-.98 1.859-1.37 2.712-.788ZM26.83 54.979v3.013H14.78v-6.026H26.83v3.013Zm18.076 0v3.013H32.855v-6.026h12.051v3.013Z" clip-rule="evenodd"/></svg>