<svg xmlns="http://www.w3.org/2000/svg" width="100" height="100" viewBox="0 0 202.073 185.236"><defs><linearGradient id="a" x1=".053" y1=".218" x2=".874" y2=".635" gradientUnits="objectBoundingBox"><stop offset="0" stop-color="#fff" stop-opacity=".2"/><stop offset="1" stop-color="#fff" stop-opacity="0"/></linearGradient></defs><path d="M101.038 0 44.087 6.217.001 63.13l101.039 122.1 101.032-122.1-44.087-56.913Z" fill="#fdb300"/><path d="m0 63.132 101.039 122.1-60.115-122.1ZM161.15 63.132l-60.108 122.1 101.032-122.1Z" fill="#ea6c00"/><path d="M44.087 6.217 40.926 63.13 101.039 0ZM161.15 63.13l-3.162-56.913L101.041 0Z" fill="#fdd231"/><path d="M161.15 63.13h40.924L157.988 6.217ZM0 63.13h40.924l3.162-56.913Z" fill="#fdad00"/><path d="M101.039 0 40.926 63.13h120.221Z" fill="#feeeb7"/><path d="m40.923 63.132 60.115 122.1 60.111-122.1Z" fill="#fdad00"/><path d="M101.037 1 44.086 7.217 0 64.13l101.039 122.1 101.032-122.1-44.087-56.913Z" transform="translate(.001 -1)" fill="url(#a)"/></svg>