<svg xmlns="http://www.w3.org/2000/svg" width="100" height="100" viewBox="0 0 161.723 96.71"><path data-name="Path 114" d="M45.575 35.123a16.274 16.274 0 0 0 .592 4.787 28.79 28.79 0 0 0 1.72 3.873 2.34 2.34 0 0 1 .377 1.237 2.13 2.13 0 0 1-1.022 1.614l-3.389 2.259a2.579 2.579 0 0 1-1.4.484 2.475 2.475 0 0 1-1.614-.753 16.64 16.64 0 0 1-1.933-2.524 41.297 41.297 0 0 1-1.667-3.173 19.87 19.87 0 0 1-15.813 7.423c-4.518 0-8.122-1.291-10.757-3.873a13.817 13.817 0 0 1-3.982-10.332 13.846 13.846 0 0 1 4.895-11.08c3.281-2.8 7.638-4.2 13.178-4.2a42.586 42.586 0 0 1 5.7.43c1.99.269 4.034.7 6.186 1.183v-3.921c0-4.088-.861-6.939-2.528-8.606-1.721-1.667-4.626-2.474-8.767-2.474a24.472 24.472 0 0 0-5.809.7A42.858 42.858 0 0 0 13.733 10a15.433 15.433 0 0 1-1.883.7 3.3 3.3 0 0 1-.861.161c-.753 0-1.13-.538-1.13-1.667V6.562a3.4 3.4 0 0 1 .377-1.883 4.028 4.028 0 0 1 1.506-1.13 30.966 30.966 0 0 1 6.777-2.42A32.61 32.61 0 0 1 26.91.107c6.4 0 11.08 1.452 14.092 4.357 2.958 2.9 4.464 7.315 4.464 13.232v17.427ZM23.738 43.3a17.432 17.432 0 0 0 5.54-.968 11.986 11.986 0 0 0 5.11-3.442 8.537 8.537 0 0 0 1.829-3.442 19.31 19.31 0 0 0 .538-4.679v-2.262a44.918 44.918 0 0 0-4.948-.914 40.529 40.529 0 0 0-5.056-.323c-3.6 0-6.239.7-8.014 2.151a7.5 7.5 0 0 0-2.636 6.186c0 2.528.645 4.411 1.99 5.7a7.459 7.459 0 0 0 5.647 1.993Zm43.191 5.809a3 3 0 0 1-2.042-.539 4.384 4.384 0 0 1-1.13-2.1L51.115 4.895a9.422 9.422 0 0 1-.484-2.151A1.18 1.18 0 0 1 51.922 1.4h5.271a2.982 2.982 0 0 1 2.1.538 4.4 4.4 0 0 1 1.076 2.1l9.036 35.607 8.389-35.611a3.773 3.773 0 0 1 1.022-2.1 3.7 3.7 0 0 1 2.151-.534h4.3a3.237 3.237 0 0 1 2.151.538 3.624 3.624 0 0 1 1.022 2.1l8.5 36.037 9.307-36.041a4.612 4.612 0 0 1 1.076-2.1 3.509 3.509 0 0 1 2.1-.538h5a1.2 1.2 0 0 1 1.345 1.345 5.364 5.364 0 0 1-.108.861 7.653 7.653 0 0 1-.377 1.345l-12.962 41.579a4.124 4.124 0 0 1-1.13 2.1 3.441 3.441 0 0 1-2.044.538h-4.626a3.237 3.237 0 0 1-2.151-.538 3.813 3.813 0 0 1-1.022-2.151l-8.337-34.696-8.283 34.639a4.2 4.2 0 0 1-1.022 2.151 3.334 3.334 0 0 1-2.151.538Zm69.117 1.452a35.593 35.593 0 0 1-8.283-.968 24.469 24.469 0 0 1-6.186-2.151 3.876 3.876 0 0 1-1.667-1.506 3.8 3.8 0 0 1-.323-1.508v-2.743c0-1.13.43-1.667 1.237-1.667a3.046 3.046 0 0 1 .968.161c.323.108.807.323 1.345.538a29.257 29.257 0 0 0 5.917 1.883 32.3 32.3 0 0 0 6.4.645c3.389 0 6.024-.592 7.853-1.775a5.792 5.792 0 0 0 2.8-5.11 5.238 5.238 0 0 0-1.452-3.765c-.968-1.022-2.8-1.936-5.433-2.8l-7.8-2.42c-3.926-1.237-6.831-3.066-8.606-5.486a12.815 12.815 0 0 1-2.689-7.8 11.971 11.971 0 0 1 1.452-5.97 13.83 13.83 0 0 1 3.873-4.411 17.071 17.071 0 0 1 5.594-2.8 23.443 23.443 0 0 1 6.777-.914 27 27 0 0 1 3.6.215c1.237.161 2.367.377 3.5.592 1.076.269 2.1.538 3.066.861a11.739 11.739 0 0 1 2.259.968 4.651 4.651 0 0 1 1.614 1.345 2.9 2.9 0 0 1 .484 1.775v2.533c0 1.13-.43 1.721-1.237 1.721a5.6 5.6 0 0 1-2.044-.645 24.607 24.607 0 0 0-10.327-2.1c-3.066 0-5.486.484-7.154 1.506a5.194 5.194 0 0 0-2.528 4.787 5.079 5.079 0 0 0 1.614 3.819 16.066 16.066 0 0 0 5.917 2.961l7.638 2.42c3.873 1.237 6.67 2.958 8.337 5.164a12.171 12.171 0 0 1 2.474 7.53 13.827 13.827 0 0 1-1.4 6.239 14.465 14.465 0 0 1-3.926 4.733 17.338 17.338 0 0 1-5.97 3.012 25.577 25.577 0 0 1-7.695 1.13Z" fill="#8f8f8f"/><g data-name="Group 67" fill="#f90" fill-rule="evenodd"><path data-name="Path 115" d="M146.211 76.701c-17.7 13.07-43.406 20.009-65.513 20.009A118.52 118.52 0 0 1 .716 66.21c-1.667-1.506-.161-3.55 1.829-2.367a161.3 161.3 0 0 0 80.036 21.246 159.713 159.713 0 0 0 61.051-12.476c2.956-1.345 5.484 1.936 2.579 4.088Z"/><path data-name="Path 116" d="M153.58 68.31c-2.259-2.9-14.953-1.4-20.708-.7-1.721.215-1.99-1.291-.43-2.42 10.112-7.1 26.732-5.056 28.669-2.689 1.936 2.42-.538 19.041-10 27-1.452 1.237-2.851.592-2.205-1.022 2.146-5.324 6.933-17.319 4.674-20.169Z"/></g></svg>