<svg xmlns="http://www.w3.org/2000/svg" width="100" height="100" viewBox="0 0 224.592 257.372"><g data-name="Group 66"><g data-name="Group 65"><g data-name="Group 64" fill="#9cdb53"><path data-name="Path 107" d="M16.043 96.518A16.069 16.069 0 0 0 0 112.604v64.34a16.043 16.043 0 1 0 32.085 0v-64.339a16.071 16.071 0 0 0-16.043-16.087Zm0 0"/><path data-name="Path 108" d="M208.547 96.518a16.068 16.068 0 0 0-16.04 16.086v64.34a16.042 16.042 0 1 0 32.084 0v-64.339a16.069 16.069 0 0 0-16.044-16.087Zm0 0"/><g data-name="Group 63"><path data-name="Path 109" d="M48.128 193.963a16.068 16.068 0 0 0 16.044 16.085v31.239a16.041 16.041 0 1 0 32.082 0v-31.239h32.083v31.239a16.043 16.043 0 1 0 32.086 0v-31.239a16.07 16.07 0 0 0 16.043-16.085V97.451H48.128Zm0 0"/><path data-name="Path 110" d="m152.336 30.518 14.278-17.356a8.031 8.031 0 1 0-12.369-10.247L138.638 21.88a62.6 62.6 0 0 0-53 .193L70.438 3.03a8.031 8.031 0 1 0-12.525 10.054l14.084 17.659A63.96 63.96 0 0 0 48.128 80.43h128.337a64 64 0 0 0-24.13-49.911ZM96.252 56.303a8.043 8.043 0 1 1 8.024-8.043 8.034 8.034 0 0 1-8.024 8.043Zm32.083 0a8.043 8.043 0 1 1 8.023-8.043 8.034 8.034 0 0 1-8.023 8.043Zm0 0"/></g></g></g></g></svg>