<svg xmlns="http://www.w3.org/2000/svg" width="60" height="56" fill="none"><path fill="#DB9102" fill-rule="evenodd" d="M8.51.228c-1.85.59-3.359 2.3-3.722 4.215-.066.347-.12 1.999-.12 3.67v3.04l-.996 1.85c-.548 1.017-.997 1.93-.997 2.029 0 .251.419.757.684.827.565.147.871-.178 1.778-1.886l.88-1.657 3.547-.002c3.475-.002 3.547.003 3.547.234 0 .13-.213 1.673-.472 3.43-.26 1.756-.52 3.894-.576 4.75-.091 1.36-.15 1.65-.459 2.312-.747 1.597-2.049 2.527-3.877 2.77-2.805.374-5.194-1.075-5.824-3.533-.259-1.012-.172-1.848.297-2.84.337-.714.358-.82.218-1.112-.38-.79-1.21-.72-1.704.143a5.378 5.378 0 0 0-.701 3.039c.168 2.387 1.627 4.511 3.755 5.468l.9.405v11.446c0 7.294.044 11.675.12 12.077.366 1.928 1.813 3.563 3.717 4.199.727.243.782.244 21.491.244 20.71 0 20.764 0 21.491-.244a5.499 5.499 0 0 0 3.247-2.844c.497-1.016.59-1.676.59-4.204 0-2.197-.003-2.22-.288-2.505-.345-.345-.76-.368-1.136-.064-.271.22-.278.271-.34 2.785-.058 2.352-.085 2.606-.329 3.105-.386.79-.96 1.409-1.676 1.805l-.628.348H9.066l-.629-.348c-.712-.394-1.285-1.01-1.68-1.805l-.271-.544-.032-11.638-.032-11.637H7.43a6.357 6.357 0 0 0 3.374-.982c.594-.383 1.602-1.378 1.964-1.94l.183-.283.259.419c.653 1.057 2.623 2.47 3.447 2.472.475.001.793-.345.793-.863 0-.504-.074-.58-1.027-1.055-.891-.446-1.696-1.302-2.176-2.315-.366-.772-.373-.821-.351-2.313.016-1.107.162-2.455.533-4.925l.511-3.4 4.31-.031 4.309-.03-.036 4.955-.035 4.955-.373.789c-.48 1.013-1.285 1.87-2.177 2.315-.953.476-1.026.551-1.026 1.055 0 .518.318.864.793.863.823-.002 2.793-1.415 3.447-2.472l.259-.42.182.284c.363.562 1.37 1.557 1.964 1.94 2.068 1.333 5.045 1.333 7.113 0 .594-.383 1.601-1.378 1.963-1.94l.183-.283.25.4c.329.53 1.369 1.529 1.99 1.912 1.988 1.228 4.884 1.19 6.87-.089.594-.383 1.602-1.378 1.964-1.94l.183-.283.249.4c.33.53 1.37 1.529 1.99 1.912.896.553 2.13.893 3.248.893h1.005V42.34l.288.288c.367.366.816.366 1.183 0l.288-.288V27.38l.9-.405c2.097-.943 3.573-3.064 3.751-5.39.113-1.472-.073-1.953-2.486-6.421l-2.165-4.009v-3.04c0-1.673-.054-3.325-.12-3.672-.367-1.935-1.882-3.636-3.76-4.22C50.806.022 50.33 0 47.006 0c-3.458 0-3.737.015-3.917.214-.279.308-.25.989.052 1.263.229.207.52.227 4.016.282l3.77.058.628.349c.713.394 1.286 1.01 1.68 1.805.256.517.271.69.308 3.563l.04 3.02H6.41l.039-3.02c.037-2.873.052-3.046.308-3.563.394-.795.967-1.41 1.68-1.805l.629-.349 15.436-.058c14.971-.057 15.444-.065 15.683-.282.318-.288.336-1.008.033-1.283C40.02.015 38.773 0 24.593.006 9.979.012 9.148.024 8.51.228Zm1.786 3.276c-1.663.538-2.432 2.141-1.749 3.647.322.709.533.925 1.222 1.248 1.817.854 3.749-.378 3.739-2.383a2.48 2.48 0 0 0-1.22-2.168c-.563-.343-1.496-.504-1.992-.344Zm6.35.26c-.557.283-1.099.94-1.315 1.594-.324.984.177 2.336 1.09 2.94.428.284.594.32 1.45.32.885 0 1.008-.03 1.469-.353.657-.462 1.158-1.4 1.158-2.168 0-.766-.5-1.705-1.155-2.165-.424-.298-.631-.358-1.344-.39-.687-.03-.937.011-1.354.223Zm6.918 0c-.557.283-1.099.94-1.314 1.594-.325.984.176 2.336 1.09 2.94.428.284.593.32 1.449.32.885 0 1.008-.03 1.469-.353.658-.462 1.158-1.4 1.158-2.168 0-.766-.5-1.705-1.155-2.165-.424-.298-.63-.358-1.344-.39-.687-.03-.937.011-1.353.223Zm8.794.006c-1.316.654-1.792 2.358-1.025 3.666.407.695 1.026 1.1 1.898 1.243.94.154 15.536.151 16.36-.003.348-.065.84-.263 1.096-.441.617-.43 1.119-1.39 1.119-2.138 0-.768-.5-1.705-1.158-2.167l-.504-.354-8.637-.03-8.638-.03-.511.254ZM11.275 5.29c.286.13.546.547.546.877 0 .29-.55.751-.896.751-.765 0-1.125-.92-.575-1.47.32-.32.502-.351.925-.159Zm7.225.243c.51.548.123 1.385-.64 1.385a.85.85 0 0 1-.64-.256c-.51-.548-.123-1.385.64-1.385a.85.85 0 0 1 .64.256Zm6.919 0c.51.548.123 1.385-.64 1.385a.85.85 0 0 1-.641-.256c-.51-.548-.123-1.385.64-1.385a.85.85 0 0 1 .64.256Zm24.39 0c.464.5.227 1.187-.48 1.39-.526.15-15.391.15-15.917 0-.707-.203-.945-.89-.48-1.39l.24-.256h16.397l.24.256ZM34.897 17.266l-.036 4.954-.373.789c-.954 2.013-2.807 3.023-5.073 2.765-1.572-.178-2.94-1.207-3.678-2.765l-.374-.789-.035-4.954-.035-4.954h9.639l-.035 4.954Zm10.277-4.69c.277 1.274.937 7.055.94 8.237.004 1.343-.013 1.444-.37 2.196-.497 1.05-1.287 1.875-2.25 2.349-.729.36-.843.38-2.066.38-1.223 0-1.338-.02-2.067-.38-.962-.474-1.752-1.299-2.25-2.35l-.374-.788-.035-4.954-.035-4.954h8.45l.057.264Zm10.794 3.447c1.096 2.039 2.063 3.924 2.148 4.19.097.304.132.78.094 1.285-.122 1.602-1.171 3.138-2.638 3.86-.763.376-.791.38-2.477.38s-1.714-.004-2.477-.38c-.956-.47-1.755-1.3-2.231-2.318-.311-.665-.367-.948-.46-2.348-.083-1.25-.734-6.693-.97-8.116l-.044-.264 3.53.003 3.531.003 1.994 3.705ZM15.46 30.276c-.132.14-.238.391-.236.557.009.686.559.945 2.01.945.787 0 .943.036 1.246.29.19.16.402.438.471.616.07.179.714 3.122 1.432 6.54s1.398 6.425 1.512 6.683c.252.572.973 1.29 1.55 1.546.405.179.422.208.31.531-.315.902.22 2.293 1.108 2.88.428.283.594.32 1.45.32.884 0 1.007-.03 1.468-.354.316-.222.63-.593.843-.996.297-.565.331-.733.282-1.376l-.056-.733h3.815l-.056.733c-.05.643-.016.811.282 1.376.213.403.526.774.842.996.462.325.583.354 1.48.354s1.018-.029 1.48-.354c.316-.222.63-.593.842-.996.298-.565.332-.733.283-1.376-.055-.707-.047-.733.218-.733.357 0 .755-.431.75-.814-.005-.383-.223-.669-.63-.823-.208-.08-2.692-.122-7.097-.122-6.696 0-6.782-.003-7.09-.245-.403-.317-.615-.739-.718-1.427l-.083-.556h15.956l.224-.285c.162-.206.49-1.614 1.181-5.071.527-2.633.956-4.866.954-4.962-.002-.097-.084-.282-.181-.41-.174-.231-.35-.236-10.328-.294l-10.151-.059-.226-.606c-.27-.724-.92-1.429-1.642-1.778-.447-.216-.73-.254-1.89-.254-1.254 0-1.386.021-1.605.257Zm10.2 4.287c.002.048.08.642.172 1.319.093.677.17 1.297.173 1.378.003.112-.494.146-2.105.146-2.09 0-2.109-.002-2.168-.264-.184-.81-.531-2.494-.531-2.574 0-.118 4.454-.124 4.46-.005Zm7.736-.051c0 .252-.366 2.705-.416 2.785-.081.132-5.057.15-5.138.018-.031-.05-.114-.538-.184-1.085a56.077 56.077 0 0 0-.19-1.374l-.063-.381H30.4c1.648 0 2.996.016 2.996.037Zm6.097.082c0 .13-.446 2.273-.543 2.607-.053.185-.257.205-2.103.205-1.124 0-2.043-.04-2.04-.088.001-.048.079-.642.172-1.319.092-.677.17-1.297.172-1.378.005-.188 4.342-.215 4.342-.027Zm-13.246 4.659c.002.048.08.642.172 1.32.092.676.17 1.27.172 1.318.002.049-.867.088-1.931.088s-1.935-.04-1.936-.088c0-.048-.126-.681-.28-1.407l-.28-1.319h2.04c1.121 0 2.04.04 2.043.088Zm6.558 0c-.002.048-.079.642-.172 1.32a60.48 60.48 0 0 0-.172 1.318c-.005.13-4.108.11-4.108-.02 0-.138-.216-1.818-.3-2.325l-.062-.38h2.41c1.324 0 2.407.039 2.404.087Zm5.744 0c-.002.048-.123.668-.268 1.378l-.264 1.29-1.9.032c-1.046.018-1.899-.009-1.897-.059.002-.05.08-.645.172-1.322.093-.677.17-1.27.172-1.319.003-.048.901-.088 1.998-.088 1.096 0 1.99.04 1.987.088Zm-11.607 8.846c.51.548.123 1.385-.64 1.385-.482 0-.88-.372-.88-.821 0-.735 1.011-1.11 1.52-.564Zm8.911 0c.51.548.123 1.385-.64 1.385-.481 0-.88-.372-.88-.821 0-.735 1.012-1.11 1.52-.564Z" clip-rule="evenodd"/></svg>