<svg xmlns="http://www.w3.org/2000/svg" width="58" height="60" fill="none"><path fill="#FF5A5A" fill-rule="evenodd" d="M39.347.13c-1.96.561-3.38 2.094-3.75 4.045-.16.842-.153 2.462.013 2.957.185.552.634 1.127 1.045 1.34l.346.179v4.785l-3.078.038-3.079.038-.75.407c-.478.258-.915.614-1.2.975-.77.974-.806 1.236-.806 5.969v4.2h-5.629v-.854c0-2.662-1.458-4.388-3.812-4.513-.76-.04-1.066-.002-1.607.202-.87.328-1.714 1.098-2.149 1.957-.307.607-.352.83-.39 1.947l-.043 1.262H10.79c-3.117 0-3.76.03-4.279.197-.804.26-1.65 1.027-2.01 1.822l-.279.62-.034 5.915c-.025 4.145.004 6.009.095 6.23.125.301.54.579.867.579.085 0 .294-.11.463-.243.308-.242.31-.252.31-1.877 0-.898.013-1.632.029-1.632.016.001.288.08.605.176.317.096.937.175 1.378.175h.802v.458c0 .39-.047.475-.322.58-.393.15-.623.337-.885.718-.298.432-.28 2.04.03 2.548.462.76.603.794 3.423.835 2.355.035 2.592.02 3.089-.2.75-.332 1.051-1.003.969-2.155-.069-.961-.293-1.333-1.003-1.667-.451-.212-.492-.269-.492-.675v-.445l4.896.031 4.896.03.035.415c.032.376-.001.427-.359.556-.216.079-.548.305-.738.503-.32.333-.348.433-.38 1.378-.03.855.003 1.08.2 1.394.477.763.607.794 3.465.832 2.502.034 2.602.026 3.105-.234.75-.39.97-.861.923-1.991-.042-1.063-.255-1.44-1.008-1.794-.451-.212-.493-.269-.493-.674v-.443l.909-.005c.5-.003 1.12-.081 1.378-.174.258-.093.482-.17.498-.171.016-.001.03 4.568.03 10.154 0 11.108.03 10.608-.679 11.13-.312.23-.527.235-11.636.265-10.598.028-11.342.017-11.719-.176a2.175 2.175 0 0 1-.645-.537c-.238-.325-.243-.463-.276-7.295l-.033-6.964-.305-.24c-.722-.568-1.447-.053-1.447 1.027v.458l-.864.065c-1.397.106-2.389.753-2.972 1.941L0 47.17v6.568l.303.646c.603 1.285 1.684 1.99 3.055 1.992h.779l.082.558c.134.906.513 1.633 1.146 2.203 1.034.93.318.884 13.35.848l11.543-.031.625-.347c.998-.552 1.588-1.413 1.75-2.552.081-.562.12-.623.411-.657.315-.036.322-.025.322.595 0 1.305.498 2.214 1.489 2.713.736.37 1.953.168 2.595-.432.52-.486.662-.905.724-2.135l.059-1.173 4.72-.03 4.72-.031v1.097c0 1.317.257 1.928 1.046 2.483.443.312.594.352 1.348.352 1.09 0 1.651-.333 2.107-1.247.261-.524.308-.772.308-1.637v-1.02l1.32-.044c1.078-.036 1.419-.093 1.87-.313 1.143-.56 1.888-1.615 2.097-2.973.07-.456.102-5.603.081-13.388l-.032-12.647-.33-.283c-.402-.347-.66-.357-1.062-.04l-.309.243-.002 12.804c-.002 7.263-.05 13.003-.11 13.264-.13.56-.426.978-.942 1.329l-.388.264h-17.85l.038-3.308c.042-3.664 0-3.977-.642-4.912l-.389-.565-.031-13.679-.031-13.679-.277-.224c-.36-.29-.893-.286-1.19.01-.231.232-.234.391-.234 13.487v13.253H32.668L32.635 36l-.032-8.532-.364-.645c-.426-.756-1.158-1.36-1.879-1.553l-.513-.138V16.7l.292-.498c.194-.331.46-.579.8-.743.504-.244.571-.246 11.997-.246h11.49l.516.264c.63.322.937.722 1.066 1.395.055.281.101 1.813.104 3.405l.005 2.894.31.243c.402.317.659.307 1.062-.04l.329-.283v-6.646l-.338-.733c-.388-.839-1.11-1.568-1.928-1.946-.51-.236-.765-.256-3.627-.291l-3.079-.038V11.04c0-1.514.043-2.395.117-2.395.258 0 1.054-.867 1.237-1.347.29-.76.194-3.15-.164-4.066C49.533 1.95 48.403.814 47.116.3c-.64-.256-.84-.27-3.958-.295-2.397-.019-3.426.015-3.811.125Zm7.486 2c.686.38 1.07.781 1.456 1.517.204.388.263.74.3 1.791.047 1.303.046 1.31-.258 1.509-.284.186-.327.187-.599.008-.27-.177-.293-.261-.294-1.098 0-1.196-.169-1.749-.69-2.27-.646-.646-1.061-.713-4.106-.669-2.534.037-2.67.05-3.088.311-.797.495-.957.85-1.03 2.289-.055 1.072-.101 1.302-.289 1.439-.308.225-.489.205-.78-.086-.23-.23-.245-.344-.195-1.446.061-1.388.292-1.995 1.047-2.75.88-.88 1.24-.948 4.792-.918l3.108.027.626.346Zm-1.36 2.674c.148.114.198.409.228 1.328.042 1.32.23 1.751.994 2.275l.392.268V13.453H38.76V8.684l.438-.283c.708-.46.994-1.116 1.062-2.44.032-.634.114-1.166.188-1.214.238-.157 4.814-.106 5.025.057Zm-5.79 12.978-.278.224v31.707l.277.224c.359.29.893.286 1.19-.01.231-.233.234-.391.234-16.068 0-15.676-.003-15.834-.235-16.067-.296-.296-.83-.3-1.189-.01Zm5.301.085-.243.309V49.543l.243.309c.318.404.901.421 1.262.038l.255-.272v-31.55l-.272-.255c-.384-.36-.937-.337-1.245.054Zm5.407-.038-.255.272v31.55l.272.255c.36.338.841.325 1.2-.033l.287-.288V18.176l-.243-.31c-.318-.403-.9-.42-1.26-.037Zm-31.064 3.758c.501.209 1.095.9 1.248 1.45.068.244.123.8.124 1.235v.792h-4.456l.003-.968c.003-1.373.308-1.986 1.228-2.473.436-.23 1.348-.248 1.853-.037Zm-10.59 9.458v4.222h-.791c-.884-.001-1.39-.226-1.753-.781-.19-.291-.212-.634-.212-3.457 0-2.985.012-3.15.243-3.465.37-.503.94-.74 1.78-.74l.733-.001v4.222Zm3.05 1.349v5.57h-1.291V26.823h1.29v5.57Zm11.582-1.32.03 4.193h-9.853V26.82l4.896.03 4.896.031.031 4.193Zm2.96 1.32v5.57h-1.173V26.823h1.173v5.57Zm3.762-5.317c.772.434.812.627.812 3.987 0 2.657-.023 3.018-.215 3.375-.31.579-.854.828-1.806.828h-.794v-8.444h.776c.578 0 .89.065 1.227.254ZM13.289 40.046l-.037.322-2.081.032-2.082.032v-.709h4.238l-.038.323Zm14.564.03v.351H23.631v-.704h4.222v.352ZM10.32 44.587c-.494.233-.695.415-.981.884-.24.395-.25.54-.25 4.279 0 4.342-.015 4.25.89 4.941l.44.336 7.75.035c5.17.024 7.89-.005 8.173-.088a1.971 1.971 0 0 0 1.29-1.11c.195-.433.216-.826.216-4.114 0-4.106-.033-4.292-.881-4.94l-.444-.338-7.925-.026c-6.642-.022-7.983.001-8.278.14Zm15.747 5.059c.025 2.784.001 3.44-.13 3.548-.119.098-2.156.126-7.596.104l-7.434-.03-.031-3.4c-.018-1.87-.006-3.466.026-3.548.045-.119 1.589-.143 7.595-.119l7.539.03.03 3.415Zm-21.904.807v4.164h-.717c-.674 0-.745-.027-1.161-.444-.568-.568-.618-.943-.566-4.195.036-2.215.064-2.497.279-2.867.301-.519.893-.82 1.608-.82l.557-.001v4.163Zm30.112-3.93c.21.13.488.406.616.616.216.354.233.595.233 3.289 0 3.242-.054 3.542-.725 3.951-.27.165-.593.237-1.063.237h-.674v-8.326h.616c.407 0 .745.08.997.234Zm2.14 10.357c0 1.064-.092 1.255-.603 1.255-.485 0-.687-.382-.687-1.297 0-.426.035-.81.078-.853.043-.043.333-.078.645-.078h.567v.973Zm14.308-.074c0 .988-.169 1.329-.655 1.329-.495 0-.636-.288-.636-1.298v-.93h1.291v.9Z" clip-rule="evenodd"/></svg>