<svg xmlns="http://www.w3.org/2000/svg" width="60" height="45" fill="none"><path fill="#00B2FF" fill-rule="evenodd" d="M12.362.22c-1.125.516-1.576 1.348-1.58 2.913l-.002 1.082-.615.309c-2.806 1.408-4.883 3.875-5.763 6.844-.204.686-1.591 8.807-1.591 9.311 0 .677 1.003 1.044 1.463.535.158-.175.393-1.312.95-4.6.772-4.558.936-5.274 1.425-6.242a9.404 9.404 0 0 1 6.212-4.943c1.08-.263 3.122-.258 4.189.01 1.102.278 2.784 1.107 3.574 1.761l.645.535.068 1.084c.1 1.613.63 2.505 1.842 3.1.665.326.68.328 3.029.328 2.157 0 2.382-.02 2.607-.223.336-.304.336-1.008.001-1.312-.22-.199-.498-.23-2.549-.282-2.522-.064-2.687-.107-3.006-.778a2.37 2.37 0 0 1-.175-.85V8.32h13.828v.48c0 .577-.289 1.233-.63 1.428-.16.093-1.06.163-2.551.201-2.05.053-2.33.083-2.549.282-.335.304-.335 1.008 0 1.312.226.204.451.223 2.608.223 2.349 0 2.364-.002 3.03-.328 1.21-.595 1.74-1.487 1.841-3.1l.068-1.084.645-.535c.81-.671 2.502-1.506 3.574-1.764.997-.24 3.004-.268 3.985-.057 3.188.688 5.819 3.028 6.852 6.097.276.817 4.457 25.48 4.457 26.288 0 1.262-.633 2.73-1.59 3.688-1.678 1.678-4.28 2.037-6.408.885-.709-.383-1.734-1.455-2.11-2.204-.159-.319-.488-1.186-.73-1.927-.242-.742-.536-1.45-.654-1.573-.41-.43-1.181-.232-1.406.359-.13.34.9 3.454 1.441 4.357 1.898 3.17 5.995 4.318 9.377 2.627 2.233-1.116 3.828-3.707 3.836-6.229.002-.732-4.116-25.41-4.402-26.38-.858-2.902-2.923-5.397-5.587-6.75l-.791-.4V3.17c0-1.554-.402-2.354-1.442-2.873C47.205.01 47.098 0 45.02 0c-2.36 0-2.828.082-3.46.602-.683.563-.896 1.164-.896 2.525v1.178l-.924.536c-.508.295-1.244.804-1.635 1.13l-.712.592H22.606l-.712-.593a14.407 14.407 0 0 0-1.635-1.129l-.924-.536V3.127c0-1.361-.213-1.962-.896-2.525-.633-.521-1.1-.602-3.454-.6-1.837.003-2.223.035-2.623.218Zm4.98 1.772c.188.187.235.39.235 1.01 0 .76-.005.772-.283.703-1.22-.307-2.792-.346-4.317-.11l-.44.068v-.644c0-.474.065-.725.244-.952l.243-.31h2.042c1.886 0 2.06.019 2.277.235Zm29.877.075c.179.227.243.478.243.952v.644l-.44-.068c-1.524-.236-3.096-.197-4.316.11-.278.07-.283.057-.283-.704 0-1.23.027-1.243 2.51-1.243h2.043l.243.309Zm-2.628 5.887c-2.26 1.029-1.905 4.26.527 4.807 1.545.347 3.042-.886 3.042-2.506 0-1.834-1.903-3.06-3.57-2.301Zm-30.586 1.14c-.868.318-1.588 1.23-1.753 2.223-.079.473-.082.476-.79.623-.615.126-.797.23-1.324.758-.487.487-.642.739-.762 1.238-.374 1.56.683 3.157 2.225 3.361l.558.075.127.631c.498 2.477 3.522 3.094 4.982 1.017.23-.328.36-.68.4-1.08.055-.576.068-.595.422-.596.202 0 .63-.126.952-.278 1.065-.504 1.582-1.313 1.582-2.475 0-1.434-.957-2.516-2.402-2.714-.465-.064-.527-.107-.527-.365 0-1.764-1.963-3.05-3.69-2.418Zm32.168.633c.29.29.304.84.03 1.085-.262.233-.476.274-.878.168-.32-.084-.533-.508-.455-.901.113-.569.88-.776 1.303-.352Zm-30.524 1.226c.255.254.288.389.288 1.177s.032.922.287 1.177c.247.247.396.288 1.06.288.81 0 1.383.202 1.51.532.156.408.068.89-.215 1.172-.254.254-.39.288-1.16.288-1.251 0-1.388.135-1.476 1.46-.059.888-.104 1.054-.343 1.247-.375.303-.873.28-1.267-.059-.3-.257-.331-.363-.37-1.232-.056-1.233-.244-1.416-1.45-1.416-.75 0-.841-.028-1.17-.356-.298-.298-.344-.418-.284-.733.04-.207.207-.495.372-.64.252-.221.435-.263 1.15-.263 1.199 0 1.286-.087 1.37-1.355.062-.928.098-1.049.389-1.3.421-.362.94-.357 1.309.013Zm24.606 1.312c-.53.279-1.121.871-1.312 1.317-.203.474-.222 1.458-.036 1.946.372.979 1.291 1.6 2.369 1.6.766 0 1.117-.13 1.668-.614 1.43-1.255 1.075-3.534-.664-4.26-.556-.233-1.572-.227-2.025.011Zm8.66-.026c-.608.264-1.191.943-1.392 1.618-.765 2.575 2.448 4.423 4.298 2.473 1.2-1.264.744-3.403-.869-4.077-.531-.222-1.544-.229-2.038-.014Zm-7.058 1.784c.267.242.278.83.02 1.115-.242.267-.83.278-1.115.02-.267-.241-.278-.83-.02-1.115.241-.267.83-.277 1.115-.02Zm8.704.067c.402.573.09 1.264-.568 1.26-.428-.001-.574-.084-.755-.43-.184-.347-.173-.425.108-.782.318-.405.948-.43 1.215-.048Zm-26.42 2.434c-.297.297-.302.83-.011 1.189.217.268.279.276 1.921.276 1.505 0 1.726-.025 1.944-.223.322-.291.328-.926.013-1.241-.213-.213-.39-.235-1.934-.235-1.543 0-1.72.022-1.934.235Zm7.851 0c-.316.316-.31.95.013 1.242.218.198.439.224 1.944.224 1.642 0 1.704-.01 1.921-.277.29-.359.286-.892-.01-1.189-.213-.212-.39-.234-1.934-.234-1.543 0-1.72.022-1.934.235Zm12.681.006c-1.84.738-2.137 3.359-.51 4.502.666.468 1.848.563 2.548.203 2.437-1.253 1.624-4.85-1.09-4.82-.373.004-.8.056-.948.115Zm1.52 1.83c.267.24.278.83.02 1.114-.442.489-1.358.12-1.358-.547 0-.655.845-1.014 1.338-.568Zm-26.948 2.338c-.72.265-1.7 1.206-2.026 1.948-.386.875-.38 2.148.011 2.961a4.096 4.096 0 0 0 1.812 1.811c.454.218.785.283 1.465.287 1.16.008 1.906-.319 2.688-1.174.744-.814.993-1.538.92-2.668-.087-1.328-.713-2.314-1.87-2.943-.512-.28-.786-.345-1.56-.372-.637-.023-1.1.025-1.44.15Zm19.119-.061c-.99.287-2.103 1.422-2.383 2.43-.177.636-.147 1.661.067 2.289.258.756 1.173 1.732 1.948 2.077.452.201.838.276 1.438.279 1.74.008 3.02-.97 3.52-2.684.232-.8.168-1.575-.203-2.436-.308-.719-1.307-1.643-2.044-1.895-.596-.203-1.75-.232-2.343-.06Zm-16.935 1.872c.607.346.871.76.929 1.46.06.72-.15 1.198-.712 1.627-1.144.872-2.793.146-2.974-1.31-.071-.569.347-1.396.886-1.754.515-.342 1.292-.352 1.87-.023Zm19.013.023c1.235.82 1.127 2.615-.196 3.255a1.816 1.816 0 0 1-2.628-1.65c0-.811.407-1.427 1.172-1.774.403-.182 1.255-.096 1.652.169Zm-37.916.936c-.283.25-.355.607-1.413 6.97C.5 34.126 0 37.422 0 37.762c.01 3.22 2.382 6.127 5.58 6.838 1.157.257 2.73.183 3.794-.179 1.549-.527 3.02-1.704 3.838-3.071.23-.386 1.056-2.63 2.093-5.69l1.712-5.052.72.27c2.373.891 5.177.468 7.068-1.066l.488-.396h9.393l.547.418a7.296 7.296 0 0 0 7.036 1.042l.726-.272.61 1.831c.633 1.9.916 2.372 1.423 2.372.38 0 .752-.289.844-.655.123-.487-1.498-5.245-1.892-5.555-.165-.13-.359-.236-.43-.237-.072 0-.606.236-1.186.525-2.324 1.16-4.535.895-6.466-.776l-.521-.45H24.623l-.52.45c-1.932 1.671-4.143 1.937-6.467.776-.58-.29-1.114-.526-1.185-.525-.072 0-.266.107-.43.237-.248.194-.609 1.163-2.084 5.596-.98 2.948-1.914 5.621-2.074 5.94-.375.749-1.4 1.82-2.109 2.204-1.551.84-3.344.9-4.892.165-1.853-.88-3.106-2.797-3.106-4.753 0-.288.501-3.49 1.114-7.115 1.167-6.908 1.178-7.026.657-7.305-.36-.193-.676-.149-1.001.14Z" clip-rule="evenodd"/></svg>