<svg xmlns="http://www.w3.org/2000/svg" width="100" height="100" viewBox="0 0 275.396 240.967"><path d="M169.744 0c121.069 80.793 81.808 169.572 81.808 169.572s34.389 38.056 20.568 71.4c0 0-14.269-23.288-37.952-23.288-22.892 0-36.438 23.288-82.652 23.288C48.727 240.967 0 156.732 0 156.732c92.635 59.9 155.923 17.453 155.923 17.453-41.823-23.718-130.535-137.3-130.535-137.3 77.333 64.562 110.707 81.516 110.707 81.516C116.026 102.295 60.1 23.339 60.1 23.339c44.751 44.39 133.7 106.284 133.7 106.284C219.314 61.223 169.744 0 169.744 0Z" fill="#ff5722"/></svg>