<svg data-name="Google cloud" xmlns="http://www.w3.org/2000/svg" width="100" height="100" viewBox="0 0 183.005 146.85"><path data-name="Path 137" d="M116.159 40.466h5.5l15.9-15.9.815-6.725A71.678 71.678 0 0 0 22.01 52.693a8.549 8.549 0 0 1 5.5-.408l31.791-5.3s1.63-2.649 2.445-2.445a39.852 39.852 0 0 1 54.411-4.076Z" fill="#ea4335"/><path data-name="Path 138" d="M160.382 52.692a72.733 72.733 0 0 0-21.6-34.847l-22.418 22.417a39.292 39.292 0 0 1 14.469 31.383v3.872a19.767 19.767 0 1 1 0 39.535H91.298l-3.872 4.075v23.843l3.872 3.872h39.738a51.507 51.507 0 0 0 29.345-94.149Z" fill="#4285f4"/><path data-name="Path 139" d="M51.355 146.843h39.738v-31.791H51.355a18.384 18.384 0 0 1-8.151-1.834l-5.5 1.834-16.1 15.9-1.427 5.5a49.567 49.567 0 0 0 31.178 10.391Z" fill="#34a853"/><path data-name="Path 140" d="M51.356 43.726A51.662 51.662 0 0 0 .001 95.692a51.061 51.061 0 0 0 20.175 40.553l23.025-23.028a19.885 19.885 0 1 1 26.292-26.291l23.028-23.025a52.241 52.241 0 0 0-41.165-20.175Z" fill="#fbbc05"/></svg>