<svg xmlns="http://www.w3.org/2000/svg" width="60" height="51" fill="none"><path fill="#1199FC" fill-rule="evenodd" d="M15.056 6.909C6.418 10.977.318 13.916.196 14.067c-.28.346-.26.743.057 1.096.16.178 2.182 1.192 5.13 2.574l4.864 2.28.06 5.375c.056 5.267.063 5.388.325 6.004.512 1.204 1.438 2.383 2.722 3.465 3.093 2.606 7.433 4.4 12.544 5.188 1.673.258 6.19.293 7.796.061 3.261-.471 6.515-1.42 8.74-2.547.314-.16.6-.29.634-.29.035 0 .063.475.063 1.055 0 .88-.03 1.055-.184 1.055-.1 0-.459.277-.795.616-1.094 1.1-1.198 2.364-.303 3.663l.324.47-.22 2.461c-.286 3.218-.286 3.177.059 3.522.28.28.335.288 2.057.288s1.776-.008 2.056-.288c.346-.345.345-.304.059-3.522l-.22-2.462.324-.469c.896-1.3.791-2.563-.303-3.663-.336-.339-.694-.616-.795-.616-.158 0-.183-.228-.183-1.625v-1.625l.821-.61c1.662-1.237 2.951-2.74 3.543-4.131.26-.611.267-.743.325-5.997l.058-5.371 4.866-2.28c3.033-1.42 4.964-2.391 5.128-2.577.336-.38.336-.78 0-1.147C59.43 13.672 30.38-.01 29.978 0c-.149.004-6.864 3.112-14.923 6.909ZM43.54 8.315c7.286 3.434 13.26 6.254 13.277 6.269.052.045-12.225 5.808-12.374 5.808-.078 0-3.307-1.583-7.175-3.517s-7.167-3.517-7.332-3.517c-.632 0-1.069.824-.751 1.417.075.14 2.646 1.491 6.59 3.463 6.076 3.04 6.45 3.244 6.178 3.384-1.08.556-11.832 5.57-11.946 5.57-.111 0-19.791-9.226-25.596-12L3.15 14.59l13.338-6.293c7.336-3.461 13.444-6.277 13.573-6.258.129.02 6.195 2.844 13.481 6.277ZM21.1 25.125c4.743 2.233 8.75 4.06 8.904 4.06.155 0 3.143-1.346 6.64-2.99 3.498-1.644 6.39-2.99 6.425-2.99.036 0 .051 2.676.035 5.946l-.03 5.946-1.097.556c-2.345 1.19-5.138 2.07-7.993 2.52-1.883.296-6.081.296-7.964 0-1.82-.287-4.204-.91-5.67-1.484-3.714-1.452-6.795-3.702-7.822-5.712l-.287-.562-.033-4.732c-.027-3.814-.004-4.722.117-4.675.083.033 4.031 1.885 8.775 4.118Zm26.721.408c0 4.908-.002 4.93-.647 5.937-.372.582-1.887 2.17-2.07 2.17-.053 0-.096-2.562-.096-5.692v-5.69l1.318-.63c.726-.347 1.359-.635 1.407-.64.049-.006.088 2.04.088 4.545Zm-3.101 15.78a.945.945 0 0 1 .288.65.944.944 0 0 1-.288.65.944.944 0 0 1-.65.287.945.945 0 0 1-.65-.288.945.945 0 0 1-.288-.65c0-.228.106-.468.288-.65a.945.945 0 0 1 .65-.287c.228 0 .468.106.65.287Zm-.434 5.081c.188 2.248.2 2.133-.216 2.133-.284 0-.352-.049-.352-.257 0-.699.281-3.494.352-3.494.044 0 .141.728.216 1.618Z" clip-rule="evenodd"/></svg>