<svg xmlns="http://www.w3.org/2000/svg" width="60" height="61" fill="none"><path fill="#DE2BAC" fill-rule="evenodd" d="M27.174.122C21.46.629 15.56 3.047 11.022 6.739c-1.334 1.085-3.446 3.214-4.51 4.545-2.69 3.368-4.894 7.923-5.808 12.002C.13 25.85 0 27.094 0 30.034c0 2.94.13 4.185.704 6.748C1.638 40.95 3.9 45.57 6.68 48.986c1.085 1.334 3.214 3.446 4.546 4.51 3.367 2.69 7.922 4.894 12.002 5.808 2.562.574 3.808.704 6.747.704 2.94 0 4.186-.13 6.748-.704 3.067-.687 7.078-2.401 9.713-4.15 4.571-3.035 8.082-7.028 10.479-11.918 1.94-3.96 2.892-7.727 3.064-12.126.273-7.01-1.964-13.873-6.394-19.618-.99-1.283-3.785-4.078-5.068-5.068C42.316 1.643 34.854-.56 27.174.122Zm6.79 2.157c1.564.234 3.794.781 5.324 1.308 2.52.867 5.878 2.722 8.106 4.475 1.068.841 3.71 3.485 4.552 4.553 1.754 2.227 3.608 5.586 4.475 8.105 1.1 3.198 1.533 5.826 1.532 9.314 0 2.847-.176 4.327-.816 6.87-2.492 9.904-10.388 17.801-20.292 20.293-2.543.64-4.023.816-6.87.816-3.489 0-6.117-.432-9.314-1.532-2.52-.867-5.879-2.722-8.106-4.476-1.068-.84-3.711-3.484-4.552-4.552-1.754-2.227-3.609-5.586-4.476-8.106-.537-1.56-1.075-3.763-1.329-5.44-.282-1.865-.282-5.881 0-7.746.46-3.043 1.28-5.692 2.598-8.39 1.474-3.02 2.944-5.07 5.395-7.52 1.718-1.72 2.623-2.466 4.434-3.66 3.724-2.454 8.12-4.004 12.709-4.48 1.44-.15 5.127-.056 6.63.168Zm-5.515 7.812c-2.048.15-5.268.92-5.794 1.384-.361.32-.444.687-.255 1.138.276.66.607.71 1.99.293 1.71-.513 2.76-.708 4.352-.808 1.626-.102 3.492.005 4.749.272.482.102 1.018.155 1.19.117.454-.1.738-.47.738-.957 0-.617-.391-.897-1.586-1.133-.886-.175-3.535-.45-3.976-.411l-1.408.105ZM17.29 15.356l-.343.343v9.68l1.494 1.509 1.494 1.51-.434 8.768c-.26 5.261-.396 8.933-.339 9.18.354 1.522 1.793 2.699 3.3 2.699 1.534 0 2.945-1.154 3.301-2.697.057-.247-.079-3.935-.338-9.182l-.434-8.768 1.493-1.51 1.494-1.51v-9.68l-.343-.342c-.366-.366-.689-.427-1.102-.207-.544.29-.542.274-.546 4.97l-.004 4.462-1.362 1.347c-.748.742-1.43 1.506-1.514 1.7-.127.296-.08 1.773.293 9.196.298 5.938.409 8.973.336 9.236-.316 1.147-1.94 1.257-2.471.168-.192-.391-.18-.822.252-9.33.381-7.494.43-8.974.301-9.27-.084-.194-.765-.958-1.514-1.7l-1.362-1.347-.004-4.462c-.003-4.696-.002-4.68-.546-4.97-.413-.22-.736-.16-1.102.207Zm3.236-.208c-.529.29-.528.28-.528 4.88v4.384l.288.288c.396.395.985.389 1.364-.015l.285-.303v-8.803l-.33-.283c-.354-.305-.704-.353-1.079-.148Zm2.794.148-.33.283v8.803l.285.303c.38.404.969.41 1.364.015l.288-.288v-4.338c0-2.386-.033-4.423-.073-4.528-.087-.227-.644-.533-.97-.533-.13 0-.383.127-.564.283Zm12.99-.123c-1.271.372-2.317 1.202-2.854 2.264-.316.625-.892 2.426-1.213 3.795-.283 1.207-.283 3.755 0 4.812.336 1.26 1.069 2.282 2.238 3.123l.342.247-.373 8.378c-.26 5.807-.339 8.498-.26 8.769.195.667.706 1.422 1.211 1.788 1.89 1.369 4.581.562 5.305-1.59.187-.556.178-1.001-.18-8.967l-.378-8.381.34-.245c1.822-1.311 2.44-2.696 2.442-5.47 0-1.724-.118-2.402-.812-4.635-.638-2.05-1.434-3.054-2.93-3.695-.726-.311-2.149-.407-2.878-.193Zm7.578 1.874c-.5.5-.416.958.373 2.034 1.365 1.858 2.127 3.295 2.766 5.212.736 2.208.842 2.932.842 5.74 0 2.81-.106 3.534-.842 5.743-.81 2.428-1.922 4.287-4.028 6.732-.682.791-.757 1.213-.298 1.672.203.203.417.288.726.288.377 0 .519-.086 1.015-.616 2.379-2.542 4.053-5.535 4.875-8.714 1.02-3.946.885-7.772-.408-11.557-.72-2.108-2.226-4.82-3.47-6.255-.524-.603-1.12-.71-1.551-.279Zm-5.27.233c.42.218.95.74 1.157 1.142.302.584 1.01 3.228 1.138 4.245.148 1.182.01 2.725-.303 3.385-.33.696-.847 1.224-1.58 1.615-.486.258-.737.473-.814.695-.075.216.017 3.15.28 8.889.28 6.173.356 8.67.27 8.939-.162.498-.632.787-1.282.787-.651 0-1.121-.29-1.28-.787-.086-.266-.008-2.818.272-8.939.299-6.54.36-8.644.26-8.893-.087-.215-.375-.46-.837-.715-.816-.45-1.485-1.249-1.72-2.057-.227-.782-.19-3.162.065-4.119.634-2.38.907-3.08 1.402-3.602.269-.283.7-.593.958-.688.55-.203 1.516-.154 2.013.103Zm-24.45.667c-.452.182-1.905 2.57-2.679 4.4-1.806 4.273-2 9.382-.532 13.907.461 1.42 1.68 3.902 2.49 5.067.918 1.324 2.281 2.865 2.68 3.03.451.187.886.07 1.132-.305.342-.523.252-.91-.38-1.632-3.06-3.488-4.563-6.925-4.85-11.09-.278-4.014.741-7.916 2.939-11.252.669-1.015.739-1.499.283-1.955-.297-.296-.636-.35-1.083-.17Zm12.878 30.328c-.476.507-.33 1.233.311 1.536.368.175.776.208 2.554.21 2.48.002 2.934-.096 3.18-.685.188-.448.046-1.044-.289-1.223-.109-.058-1.391-.107-2.85-.107-2.617-.001-2.655.002-2.906.269Z" clip-rule="evenodd"/></svg>