<svg xmlns="http://www.w3.org/2000/svg" width="52" height="60" fill="none"><path fill="#EC5500" fill-rule="evenodd" d="M6.61.156C4.4.951 3.845 4.067 5.657 5.513l.47.377-.065 1.407c-.082 1.754-.42 2.898-1.269 4.285-.78 1.278-.786 1.822-.02 2.113.438.167.824-.072 1.29-.797 1.146-1.785 1.624-3.24 1.75-5.322L7.89 6.3h9.665l.06 1.495c.092 2.216.39 3.049 2.045 5.693.511.816.852 1.48.817 1.59-.033.105-.274.785-.536 1.512-.507 1.407-.965 3.101-1.188 4.394-.075.435-.18.792-.233.792-.054 0-.774-.244-1.6-.541-2.764-.994-2.027-1.035-5.82.325-1.817.652-3.362 1.187-3.434 1.19-.072.001-.982-.303-2.023-.676l-1.891-.678v-1.784c0-1.401.05-1.982.234-2.702.13-.504.235-.99.235-1.08 0-.288-.557-.737-.915-.737-.806 0-1.205 1.175-1.285 3.78-.03 1.017-.096 1.847-.144 1.847-.05 0-.308-.077-.575-.171-.507-.18-.754-.146-1.097.149C.011 20.864 0 21.939 0 40.192V59.51l.312.245.311.245 21.173-.032 21.172-.031.938-.262c1.252-.35 3.236-1.338 3.632-1.807.357-.425.33-.842-.074-1.184-.368-.311-.744-.25-1.603.258-.43.254-1.284.633-1.896.842-1.023.348-1.239.38-2.638.387-2.053.01-3.502-.39-4.999-1.381-1.17-.775-1.13-.657-.502-1.502.734-.988 1.61-2.854 1.919-4.085.76-3.039.188-6.517-1.49-9.053-.347-.524-.35-.518.793-1.133 1.433-.77 3.199-1.147 4.506-.961 1.986.28 3.269 1.437 3.979 3.585.107.322.236.653.289.735.052.082.52.3 1.04.484 1.564.553 2.487 1.332 3.065 2.586.397.862.482 2.416.201 3.678-.188.844-.844 2.34-1.347 3.068-.3.436-.31.888-.028 1.238.27.334.856.355 1.203.042.44-.396 1.272-1.95 1.658-3.097.354-1.051.374-1.21.372-2.814-.002-1.465-.038-1.797-.263-2.403-.524-1.411-1.608-2.678-2.862-3.347l-.686-.366.244-.37c.867-1.318 1.387-2.896 1.438-4.365.034-1.009-.167-1.342-.81-1.342-.582 0-.822.312-.914 1.19a16.45 16.45 0 0 1-.209 1.368c-.14.665-.775 2.034-.97 2.09-.064.02-.3-.285-.524-.676-.703-1.228-2.095-2.36-3.432-2.792l-.44-.143v-8.602c0-6.18-.038-8.685-.133-8.895-.196-.43-.696-.567-1.293-.357-.268.095-.507.151-.532.126-.025-.025.01-.486.077-1.024.16-1.272.156-3.752-.007-5.088-.515-4.215-2.457-7.61-5.113-8.938-2.704-1.352-5.473-1.05-8.462.922-1.64 1.082-3.914 3.594-5.11 5.642-.254.436-.49.79-.525.79-.075-.003-1.164-1.826-1.52-2.545-.4-.807-.592-1.872-.594-3.29l-.002-1.322.418-.367a3.053 3.053 0 0 0 1.03-2.323c-.001-.429-.082-.948-.186-1.188-.25-.581-.969-1.354-1.547-1.663-.47-.251-.566-.256-6.221-.278C8.025-.013 7.015.011 6.61.156Zm11.809 1.84c.25.168.46.443.564.742.15.431.144.517-.06.934-.428.878-.366.869-6.243.87-4.57 0-5.249-.024-5.604-.192-.476-.226-.745-.687-.745-1.276 0-.547.16-.836.623-1.118.355-.216.633-.228 5.72-.228h5.346l.399.267Zm15.726 4.886c2.484.94 4.243 3.858 4.789 7.943.163 1.22.07 4.755-.154 5.88l-.15.747-1.875.674-1.876.673-1.29-.458-3.224-1.148c-1.064-.38-2.04-.716-2.169-.749-.133-.034-1.678.46-3.576 1.144L21.28 22.79l-.494-.165c-.556-.187-.537-.003-.19-1.847 1.341-7.121 5.98-13.26 10.708-14.17.647-.125 2.18.022 2.842.273Zm-7.473 6.008a2.472 2.472 0 0 0-1.586 2.894c.161.671.684 1.345 1.275 1.64.235.119 2.135.704 4.222 1.3 4.166 1.191 4.292 1.206 5.26.639 1.114-.653 1.496-2.206.824-3.351-.53-.904-.425-.86-6.116-2.493-2.69-.772-3.223-.859-3.879-.63Zm4.581 2.663c2.833.819 3.667 1.104 3.834 1.31.277.341.22.67-.167.958l-.31.23-3.559-1.024c-4.196-1.209-4.036-1.153-4.203-1.464-.22-.413.13-1.056.576-1.056.115 0 1.838.47 3.83 1.046Zm-13.48 7.864c1.8.645 3.365 1.172 3.48 1.172.115 0 1.697-.53 3.515-1.179l3.306-1.179 3.286 1.18c1.807.648 3.385 1.178 3.508 1.178.122 0 1.469-.448 2.994-.996 1.524-.548 2.809-.997 2.855-.997.045 0 .082 3.503.082 7.784 0 8.658.075 7.926-.811 7.926-1.072 0-3.236.78-4.618 1.666l-.565.361-.49-.472c-1.955-1.88-4.81-3.075-7.35-3.075-1.864 0-3.44.55-4.717 1.646-.548.47-1.731 2.123-1.731 2.419 0 .726-1.094-1.385-1.348-2.603-.095-.452-.175-1.058-.178-1.348-.01-.867-.548-1.292-1.26-.992-.464.195-.551.512-.45 1.633.142 1.56.66 3.031 1.504 4.261.191.279.33.516.307.528l-.505.256c-3.45 1.744-4.639 5.793-2.934 10.003.772 1.906 2.286 3.869 3.947 5.118l.706.53H1.759v-17.82c0-9.802.022-17.82.05-17.82.027 0 1.302.448 2.832.996 1.53.548 2.877.996 2.993.996.115 0 1.676-.525 3.469-1.166 1.792-.642 3.29-1.17 3.329-1.173.038-.003 1.542.522 3.34 1.167Zm10.754 15.297c.994.21 2.384.805 3.286 1.403 4.433 2.943 5.798 8.56 3.206 13.196-.669 1.195-2.403 2.93-3.599 3.599-1.515.847-3.287 1.323-4.924 1.323-2.64 0-4.974-.989-6.916-2.929-1.82-1.817-2.781-3.839-2.901-6.096-.149-2.793 1.062-4.56 3.744-5.468.462-.156.906-.339.987-.406.08-.067.26-.474.399-.905.995-3.095 3.393-4.421 6.718-3.716Zm5.983 18.958c.267.205.536.416.597.469.062.053-.46.096-1.16.096h-1.273l.633-.464c.349-.255.653-.466.676-.469.023-.003.26.163.527.368Z" clip-rule="evenodd"/></svg>