<svg xmlns="http://www.w3.org/2000/svg" width="100" height="100" viewBox="0 0 159.141 197.066"><defs><radialGradient id="c" cx=".028" cy=".068" r="1.223" gradientTransform="matrix(1.238 0 0 -1 -2.189 -5.539)" gradientUnits="objectBoundingBox"><stop offset="0" stop-color="#fff" stop-opacity=".102"/><stop offset="1" stop-color="#fff" stop-opacity="0"/></radialGradient><linearGradient id="b" x1=".197" y1="1.193" x2=".699" y2=".448" gradientUnits="objectBoundingBox"><stop offset="0" stop-color="#1a237e" stop-opacity=".4"/><stop offset="1" stop-color="#1a237e" stop-opacity="0"/></linearGradient><clipPath id="a"><path data-name="Path 127" d="m166.572 92.21-53.047 53.066 53.047 53.066h-60.617l-53.066-53.066 53.066-53.066ZM105.955 1.276 7.431 99.8l30.318 30.318L166.572 1.276Z" transform="translate(-7.431 -1.276)"/></clipPath></defs><g data-name="Group 68" clip-path="url(#a)"><path data-name="Path 126" d="m45.475 144.001 30.3 30.318 83.365-83.384H98.523Z" fill="#39cefd"/></g><g data-name="Group 69" clip-path="url(#a)"><path data-name="Path 128" d="M98.524 0h60.617L30.318 128.841 0 98.524Z" fill="#39cefd"/></g><g data-name="Group 70" clip-path="url(#a)"><path data-name="Path 130" d="m75.775 174.318 22.748 22.729h60.617L106.093 144Z" fill="#03569b"/></g><g data-name="Group 71" clip-path="url(#a)"><path data-name="Path 132" d="M77.007 62.787 62.36 48.045 32.042 78.363Z" transform="translate(43.733 95.955)" fill="url(#b)"/></g><g data-name="Group 72" clip-path="url(#a)"><path data-name="Path 134" d="m45.473 143.989 30.319-30.318 30.321 30.318-30.321 30.319Z" fill="#16b9fd"/></g><path data-name="Path 136" d="m166.572 92.21-53.047 53.066 53.047 53.066h-60.617l-53.066-53.066 53.066-53.066ZM105.955 1.276 7.431 99.8l30.318 30.318L166.572 1.276Z" transform="translate(-7.431 -1.276)" fill="url(#c)"/></svg>