<svg xmlns="http://www.w3.org/2000/svg" width="60" height="60" fill="none"><path fill="#B32BD6" fill-rule="evenodd" d="M28.4.114c-.581.168-.893.598-1.271 1.753l-.352 1.073-.834.264c-.46.144-1.298.487-1.864.76l-1.029.499-1.16-.556c-1.102-.53-1.182-.55-1.62-.418-.506.151-1.636 1.13-2.36 2.045-.626.79-.613 1.222.078 2.5l.529.977-.432.85a18.663 18.663 0 0 0-.796 1.893l-.365 1.045-1.031.32c-1.06.331-1.537.652-1.735 1.165-.063.16-.114.936-.114 1.722 0 2.115.121 2.297 1.892 2.852.586.184 1.01.382 1.03.482.024.125-2.026.905-7.911 3.009C4.685 23.91.979 25.283.818 25.398c-.376.268-.821 1.138-.818 1.597.004.514.385 1.279.775 1.555.185.131 2.604 1.044 5.375 2.03 2.772.985 5.08 1.826 5.13 1.868.05.043-2.188.891-4.973 1.885-2.786.995-5.222 1.914-5.413 2.043-.538.362-.807.809-.862 1.427-.068.773.32 1.527.962 1.87.257.137 2.377.928 4.71 1.758 2.333.829 4.205 1.543 4.16 1.586-.044.044-2.032.775-4.417 1.625S.944 46.313.74 46.466c-.474.355-.795 1.173-.71 1.808.083.62.583 1.262 1.185 1.523.265.115 6.784 2.46 14.487 5.213 11.867 4.24 14.077 4.995 14.474 4.949.598-.071 28.614-10.093 29.006-10.377.377-.272.821-1.141.818-1.6-.004-.513-.385-1.278-.775-1.555-.185-.13-2.182-.9-4.438-1.708-2.256-.808-4.26-1.53-4.453-1.605-.332-.128-.102-.225 4.008-1.694 2.398-.858 4.53-1.658 4.738-1.78.208-.121.505-.457.66-.746.53-.99.139-2.17-.887-2.675-.238-.117-2.635-.997-5.327-1.956-3.097-1.104-4.834-1.778-4.73-1.836.09-.05 2.397-.89 5.128-1.865 2.73-.975 5.116-1.88 5.301-2.012.39-.276.771-1.042.775-1.555.003-.458-.441-1.328-.818-1.599-.224-.161-13.813-5.112-15.797-5.756-.58-.188-.423-.431.444-.687 1.995-.59 2.137-.782 2.142-2.893.005-2.196-.114-2.38-1.906-2.96l-.995-.32-.362-1.036c-.2-.569-.557-1.42-.796-1.889l-.434-.854.531-.974c.829-1.521.752-1.875-.734-3.36-.753-.755-1.149-1.06-1.513-1.169-.479-.143-.526-.132-1.653.409l-1.16.556-1.028-.498a17.027 17.027 0 0 0-1.864-.761l-.834-.264-.352-1.06C32.482.706 32.16.277 31.532.103c-.514-.143-2.627-.136-3.131.01Zm2.766 3.034c.2.644.47 1.27.6 1.391.132.122.526.28.877.35.86.173 2.242.737 3.203 1.308.434.258.913.469 1.064.469.15 0 .71-.237 1.241-.527.532-.29 1.041-.528 1.13-.528.09 0 .39.23.665.512l.503.512-.553 1.1c-.609 1.21-.659 1.572-.287 2.094.428.6 1.142 2.242 1.445 3.32.17.607.38 1.098.507 1.192.12.088.702.304 1.295.48l1.078.318.036.422c.02.232.017.614-.005.849l-.04.426-1.1.325c-.642.19-1.192.426-1.322.57-.122.134-.36.732-.529 1.328-.294 1.043-.918 2.443-1.379 3.095-.342.486-.27.961.325 2.11l.543 1.054-.566.575-.567.575-1.083-.584c-.595-.32-1.198-.584-1.339-.584-.14 0-.56.185-.933.412-.924.561-1.83.95-3.023 1.295-.553.16-1.102.378-1.218.483-.117.106-.372.711-.568 1.345l-.356 1.153h-1.62l-.356-1.153c-.196-.634-.451-1.24-.568-1.345-.116-.105-.665-.323-1.218-.483-1.193-.346-2.099-.734-3.023-1.295-.373-.227-.792-.412-.933-.412-.141 0-.744.263-1.34.584l-1.082.584-.567-.575-.566-.575.544-1.053c.602-1.167.667-1.626.302-2.139-.42-.59-1.136-2.239-1.437-3.308-.17-.607-.38-1.1-.507-1.193-.12-.088-.705-.304-1.301-.48l-1.085-.322v-1.66l1.227-.382c.758-.236 1.268-.46 1.335-.586.059-.112.222-.625.362-1.14.268-.982.99-2.632 1.414-3.226.375-.527.322-.903-.293-2.094l-.56-1.086.508-.519c.28-.285.583-.519.672-.519.09 0 .599.237 1.13.528.533.29 1.092.527 1.242.527.151 0 .625-.208 1.052-.462.925-.55 2.26-1.094 3.19-1.3.368-.082.776-.248.904-.368.13-.12.398-.744.598-1.388l.364-1.17h1.604l.364 1.17Zm-3.217 4.095c-2.688.684-4.687 2.25-5.951 4.662-.678 1.291-.937 2.411-.944 4.078-.005 1.108.049 1.6.252 2.32.832 2.947 2.931 5.178 5.85 6.218.985.351 1.102.366 2.844.362 1.723-.003 1.87-.022 2.84-.363 4.972-1.75 7.454-7.179 5.464-11.957-.873-2.098-2.604-3.888-4.63-4.787-1.687-.75-4.019-.966-5.725-.533Zm3.663 1.943c2.477.584 4.587 2.7 5.2 5.215.086.354.151 1.146.145 1.758-.02 1.917-.734 3.5-2.21 4.904-2.12 2.015-5.206 2.469-7.905 1.162-1.11-.537-2.526-1.973-3.095-3.136-1.375-2.81-.795-6.005 1.479-8.156.871-.824 2.05-1.485 3.108-1.741.892-.216 2.374-.219 3.278-.006Zm-2.829 1.94c-.778.194-1.798.816-2.42 1.473-2.341 2.476-1.535 6.44 1.614 7.931.735.348.882.375 2.023.375s1.288-.027 2.023-.375c3.239-1.534 3.978-5.705 1.437-8.108-.954-.903-1.937-1.323-3.205-1.372-.56-.022-1.221.012-1.472.075Zm2.58 2.198c.56.286 1.174.95 1.42 1.537.096.23.175.735.175 1.122 0 .825-.204 1.374-.735 1.979-.613.697-1.196.946-2.223.946-.673 0-.989-.06-1.348-.25-1.224-.654-1.855-1.994-1.569-3.329.13-.607.642-1.385 1.166-1.773.814-.603 2.186-.705 3.113-.232ZM18.14 22.2l.38.77-.53.971c-.83 1.523-.75 1.886.75 3.367.743.734 1.167 1.06 1.512 1.163.462.139.521.123 1.65-.418l1.172-.562.802.422c.442.231 1.275.579 1.852.772l1.05.35.319.974c.436 1.33.546 1.506 1.086 1.752.705.32 2.96.31 3.636-.017.562-.272.65-.414 1.084-1.735l.32-.974 1.05-.35c.576-.193 1.41-.54 1.85-.772l.803-.422 1.171.562c1.115.535 1.194.555 1.633.424.506-.152 1.636-1.13 2.36-2.046.627-.79.613-1.22-.08-2.49l-.53-.972.38-.768c.208-.423.43-.77.492-.77.125 0 15.16 5.37 15.4 5.5.085.047-6.001 2.276-13.827 5.066L29.948 36.98l-1.117-.402c-.614-.222-6.878-2.463-13.92-4.981-7.041-2.519-12.782-4.6-12.757-4.625.07-.07 15.346-5.53 15.486-5.535.067-.002.292.342.5.764Zm3.917 14.081c5.47 1.963 7.554 2.662 7.943 2.663.395.001 2.396-.669 7.949-2.66 4.082-1.465 7.508-2.664 7.613-2.664.2 0 12.093 4.207 12.24 4.33.068.057-25.97 9.413-27.47 9.87-.41.126-1.06-.094-14.32-4.835C8.374 40.255 2.144 38 2.169 37.975c.112-.113 11.981-4.333 12.212-4.343.143-.006 3.598 1.187 7.677 2.65ZM15.169 39.3c-.478.478-.358 1.239.246 1.56.464.247 11.437 4.13 11.67 4.13.307 0 .923-.617.923-.924a1.11 1.11 0 0 0-.632-.99c-.868-.4-11.347-4.064-11.619-4.064-.165 0-.43.13-.588.288Zm6.217 7.734c6.014 2.156 8.222 2.9 8.614 2.9.393 0 2.619-.748 8.75-2.94l8.224-2.942 5.459 1.954c3.002 1.075 5.437 1.976 5.41 2.002-.026.026-6.309 2.28-13.961 5.01l-13.914 4.961-11.792-4.219a9535.933 9535.933 0 0 0-13.784-4.924c-1.095-.388-2.058-.742-2.14-.787-.167-.092 10.602-4.006 10.872-3.95.096.02 3.814 1.34 8.262 2.935Zm-6.132 2.233c-.433.365-.503.926-.167 1.34.239.296 11.423 4.344 12 4.344.458 0 .92-.464.92-.925 0-.737-.163-.816-6.134-2.945-3.085-1.1-5.751-2.029-5.927-2.064-.235-.047-.416.018-.692.25Z" clip-rule="evenodd"/></svg>