<svg xmlns="http://www.w3.org/2000/svg" width="60" height="59" fill="none"><path fill="#B6B6B6" fill-rule="evenodd" d="M25.389.112c-4.526.66-8.351 3.909-9.712 8.25-1.058 3.374-.505 7.25 1.448 10.146.634.94 1.952 2.324 2.847 2.989.408.304.621.53.527.56l-.803.25c-1.04.322-1.395.822-1.047 1.472.232.433.606.468 1.683.155 4.36-1.264 8.941-1.286 13.17-.064.665.192 1.298.319 1.405.28.413-.145.606-.421.606-.864 0-.535-.236-.736-1.171-.997-.355-.099-.72-.204-.812-.234-.111-.037-.014-.158.293-.362.855-.57 1.897-1.554 2.527-2.385.69-.909.64-.893 1.866-.574l.418.108-.163.91c-.103.58-.144 1.398-.111 2.256.085 2.23.726 3.725 2.17 5.059 1.287 1.19 2.896 1.78 4.825 1.767 1.645-.01 2.538-.322 3.392-1.184a4.86 4.86 0 0 0 1.004-1.45c.192-.433.387-.79.433-.79.158-.007 1.372 1.808 1.84 2.75.257.515.595 1.293.751 1.73.34.949.689 1.482 1.192 1.827.205.14 1.085.493 1.955.784 1.2.402 1.664.615 1.922.884l.34.355v5.359l-.349.364c-.288.3-.752.494-2.68 1.117-1.398.452-2.487.873-2.723 1.053-.216.165-.736.82-1.154 1.455-1.336 2.026-3.227 3.811-5.432 5.128-1.535.917-1.894 1.184-2.012 1.495-.06.157-.398 1.818-.753 3.692-.355 1.875-.677 3.46-.716 3.522-.041.068-.995.115-2.35.115-2.254 0-2.282-.003-2.392-.264-.062-.145-.271-1.107-.465-2.138-.502-2.662-.704-2.875-2.509-2.643-2.188.28-4.746.362-7.069.224-3.07-.181-3.01-.227-3.553 2.656-.192 1.017-.407 1.92-.48 2.007-.181.22-4.468.23-4.64.011-.064-.08-.394-1.596-.734-3.368-.34-1.772-.693-3.372-.786-3.555a1.477 1.477 0 0 0-.524-.527c-3.006-1.645-5.507-4.155-6.884-6.911-.518-1.036-1.127-2.921-1.37-4.238-.252-1.37-.286-4.897-.06-6.21.81-4.704 2.968-8.068 6.787-10.58 1.146-.755 1.327-1.012 1.123-1.591-.059-.169-.263-.38-.453-.472-.321-.154-.39-.142-.935.16-1.73.957-3.782 2.76-5.021 4.413-1.63 2.174-2.542 4.34-3.193 7.572-.091.453-.247.29-.321-.338-.252-2.122-2.175-3.827-3.82-3.384-1.004.27-2 1.547-2 2.563 0 1.226 1.15 2.24 3.085 2.72l.565.141-.565.58c-.705.722-1.462 1.116-2.539 1.32-1.203.23-1.57.79-.997 1.52.242.307.29.319 1.149.28.755-.035 1.04-.112 1.803-.49.986-.487 2.29-1.668 2.71-2.457.151-.283.315-.434.471-.434.223 0 .237.058.196.861-.053 1.043.152 3.411.4 4.633.43 2.114 1.36 4.335 2.606 6.223 1.164 1.765 3.63 4.02 5.777 5.282l.515.302.562 2.978c.31 1.638.641 3.2.738 3.47.21.586.808 1.145 1.419 1.328.285.085 1.308.118 2.901.093 2.329-.036 2.484-.053 2.894-.308.666-.414.864-.858 1.24-2.777l.343-1.757.515.015c3.425.1 6.726.013 8.536-.227.128-.017.224.26.38 1.09.445 2.382.569 2.812.928 3.222.618.704 1.018.78 3.866.74l2.523-.036.499-.331c.32-.213.576-.506.714-.82.118-.27.491-1.971.83-3.782l.617-3.292.594-.33c2.809-1.558 5.387-3.954 7.005-6.51.47-.741.32-.666 3.138-1.574 2.583-.833 3.139-1.215 3.629-2.493.212-.554.237-.89.237-3.188 0-2.295-.025-2.634-.237-3.188-.453-1.186-1.087-1.66-3.102-2.317-.87-.284-1.63-.604-1.771-.747-.136-.138-.438-.751-.672-1.363-.66-1.734-1.564-3.2-3.12-5.056l-.359-.429.191-1.036c.246-1.334.352-4.67.178-5.606-.186-1.003-.683-1.937-1.184-2.224-1.085-.624-3.807-.01-8.126 1.83-.911.388-1.77.778-1.907.866-.18.116-.361.132-.645.057l-.878-.229-.484-.125.293-.725c.361-.894.73-2.64.732-3.462.002-.747-.265-1.084-.859-1.084-.578 0-.787.307-.901 1.324-.394 3.51-2.457 6.518-5.533 8.064l-.91.458-1.87-.14c-1.459-.109-2.258-.108-3.637.003-1.766.143-1.768.143-2.39-.141-2.676-1.226-4.758-3.674-5.593-6.58-.23-.8-.268-1.195-.261-2.695.007-1.557.043-1.875.322-2.79.534-1.758 1.338-3.104 2.614-4.38 4.637-4.637 12.49-3.65 15.857 1.994.681 1.142 1.089 1.358 1.683.89.479-.376.411-.828-.299-1.987-1.169-1.907-3.335-3.767-5.403-4.638-2-.843-4.29-1.15-6.34-.851ZM27.1 5.746c-.077.078-.14.256-.14.397 0 .204-.09.273-.44.336-1.216.22-2.141 1.036-2.38 2.102-.336 1.503.394 2.731 2.006 3.376l.755.302.032 1.831.032 1.832-.325-.077a3.548 3.548 0 0 1-1.483-.734c-.537-.432-.926-.467-1.178-.106-.624.89.593 2.09 2.336 2.304.531.065.59.102.623.394.078.68.959.663.959-.02 0-.294.058-.348.498-.46 1.656-.419 2.575-2 2.204-3.79-.074-.357-.263-.822-.42-1.034-.363-.493-1.188-1.08-1.803-1.283l-.48-.158V9.395c0-1.79-.027-1.756 1.055-1.329.327.129.69.234.806.234.344 0 .621-.4.579-.837-.03-.322-.125-.438-.54-.666-.296-.163-.792-.303-1.201-.34-.618-.056-.698-.093-.698-.317 0-.299-.207-.534-.469-.534a.538.538 0 0 0-.328.14Zm-.023 3.494v1.408l-.582-.295c-.656-.333-.85-.611-.867-1.244-.013-.498.257-.871.804-1.113.643-.283.645-.28.645 1.244Zm1.279 3.682c.617.39.925 1.159.728 1.817-.15.498-.721 1.06-1.08 1.06-.21 0-.224-.1-.224-1.582 0-.87.027-1.582.06-1.582.034 0 .266.13.516.287Zm20.884 3.433c.11.31.154 1.097.148 2.666-.006 1.833-.053 2.438-.266 3.427-.329 1.531-.877 3.048-1.325 3.667-.633.873-2.016 1.22-3.564.893-2.086-.44-3.465-1.71-3.972-3.656-.343-1.319-.147-3.96.334-4.492.228-.252 2.592-1.313 4.36-1.958 1.438-.525 3.13-.973 3.7-.98.393-.006.443.032.585.433ZM3.828 29.745c.386.239.989 1.246.989 1.652 0 .193-.038.193-.745-.003-.943-.261-1.53-.6-1.575-.91-.041-.283.501-.977.764-.977.1 0 .355.107.567.238Zm41.055 1.724c-.621.788.275 2.596 1.552 3.128.59.246 1.676.228 2.261-.037 1.275-.58 2.09-2.3 1.465-3.09-.495-.628-1.526-.247-1.526.562 0 .148-.136.43-.303.629-.252.3-.388.36-.81.36-.421 0-.557-.06-.81-.36-.174-.208-.303-.505-.303-.703 0-.786-1.03-1.116-1.526-.489Z" clip-rule="evenodd"/></svg>