<svg width="60" height="60" fill="none" xmlns="http://www.w3.org/2000/svg"><path fill-rule="evenodd" clip-rule="evenodd" d="M13.012.061a4.233 4.233 0 0 0-2.687 2.206c-.257.532-.31.855-.353 2.15l-.05 1.522-3.091.041-3.091.04-.945.468C1.656 7.051.947 7.776.396 8.938L0 9.775v42.429l.467.945c.563 1.14 1.288 1.848 2.45 2.4l.837.395 14.798.034 14.799.034.31-.31c.408-.409.41-.983.002-1.39l-.307-.307H18.944c-10.949 0-14.534-.036-14.926-.152-.687-.203-1.723-1.24-1.927-1.927-.115-.392-.152-4.258-.152-16.234V19.97h56.054v17.404l.307.307c.407.407.981.406 1.39-.003l.31-.31-.034-13.797-.034-13.798-.396-.835c-.55-1.163-1.26-1.888-2.398-2.45l-.945-.468-3.09-.04-3.088-.042-.052-1.523c-.05-1.444-.074-1.564-.475-2.314-.459-.858-.99-1.366-1.876-1.798-.836-.407-2.452-.394-3.32.027a4.413 4.413 0 0 0-1.936 1.936c-.258.532-.311.855-.354 2.159l-.05 1.532H34l-.052-1.532c-.05-1.455-.074-1.574-.476-2.324-.458-.858-.989-1.366-1.876-1.798-.835-.407-2.451-.394-3.32.027a4.413 4.413 0 0 0-1.935 1.936c-.259.532-.312.855-.354 2.159l-.05 1.532h-7.952l-.052-1.532c-.05-1.455-.074-1.574-.476-2.324C16.761.8 15.671.097 14.215.012c-.455-.028-.996-.005-1.203.05Zm2.035 2.228c.18.134.443.4.585.59.247.33.258.503.258 4.08 0 3.578-.01 3.75-.258 4.081-.49.657-.89.862-1.681.862s-1.191-.205-1.682-.862c-.243-.325-.26-.538-.296-3.746-.02-1.87-.005-3.581.036-3.803.093-.5.617-1.138 1.122-1.367.507-.23 1.502-.144 1.916.165Zm16.015 0c.18.134.444.4.585.59.248.33.258.503.258 4.08 0 3.578-.01 3.75-.258 4.081-.49.657-.89.862-1.681.862s-1.19-.205-1.681-.862c-.244-.325-.26-.538-.297-3.746-.02-1.87-.004-3.581.037-3.803.092-.5.616-1.138 1.122-1.367.506-.23 1.501-.144 1.915.165Zm16.016 0c.18.134.443.4.585.59.247.33.258.503.258 4.08 0 3.578-.011 3.75-.258 4.081-.49.657-.89.862-1.682.862-.79 0-1.19-.205-1.681-.862-.243-.325-.26-.538-.296-3.746-.021-1.87-.005-3.581.036-3.803.092-.5.616-1.138 1.122-1.367.506-.23 1.502-.144 1.916.165ZM9.973 9.493c.045 1.24.108 1.641.329 2.1.424.88.933 1.415 1.794 1.879.723.39.883.427 1.855.427.971 0 1.132-.037 1.852-.425.88-.475 1.26-.87 1.744-1.81.288-.56.335-.825.383-2.171l.055-1.533h7.947l.056 1.533c.046 1.24.108 1.641.329 2.1.424.88.934 1.415 1.794 1.879.726.391.88.427 1.855.424.904-.002 1.16-.053 1.703-.335.944-.49 1.336-.87 1.805-1.747.4-.748.424-.868.474-2.321L34 7.96h7.947l.056 1.533c.046 1.24.109 1.641.33 2.1.423.88.933 1.415 1.793 1.879.724.39.883.427 1.855.427s1.132-.037 1.852-.425c.88-.475 1.26-.87 1.744-1.81.289-.56.335-.825.383-2.171l.055-1.533h2.692c1.748 0 2.872.054 3.207.152.687.203 1.724 1.24 1.927 1.927.104.354.152 1.678.152 4.223v3.708H1.939v-3.708c0-2.546.048-3.87.152-4.223.189-.637 1.236-1.722 1.85-1.915.258-.082 1.574-.144 3.207-.151l2.769-.013.056 1.533Zm-.846 15.656c-.506.225-1.028.863-1.124 1.37-.042.227-.058 1.263-.036 2.303.044 2.06.102 2.244.902 2.84.324.243.513.259 3.08.259 2.566 0 2.755-.016 3.08-.258.83-.62.861-.733.861-3.183 0-2.061-.02-2.26-.258-2.58-.628-.84-.697-.858-3.535-.891-1.963-.023-2.68.011-2.97.14Zm12.012 0c-.506.225-1.029.863-1.124 1.37-.043.227-.059 1.263-.037 2.303.045 2.06.103 2.244.902 2.84.325.243.514.259 3.08.259 2.567 0 2.756-.016 3.08-.258.831-.62.862-.733.862-3.183 0-2.061-.02-2.26-.258-2.58-.628-.84-.698-.858-3.536-.891-1.962-.023-2.68.011-2.97.14Zm12.011 0c-.506.225-1.029.863-1.124 1.37-.042.227-.059 1.263-.036 2.303.044 2.06.102 2.244.902 2.84.324.243.513.259 3.08.259 2.566 0 2.755-.016 3.08-.258.83-.62.861-.733.861-3.183 0-2.061-.02-2.26-.258-2.58-.628-.84-.697-.858-3.536-.891-1.962-.023-2.68.011-2.969.14Zm12.012 0c-.506.225-1.03.863-1.124 1.37-.043.227-.06 1.263-.037 2.303.045 2.06.103 2.244.902 2.84.325.243.514.259 3.08.259 2.567 0 2.756-.016 3.08-.258.831-.62.861-.733.861-3.183 0-2.061-.02-2.26-.258-2.58-.627-.84-.697-.858-3.535-.891-1.962-.023-2.68.011-2.97.14Zm-31.211 3.33v1.502H9.947v-3.003h4.004v1.502Zm12.011 0v1.502h-4.004v-3.003h4.004v1.502Zm12.012 0v1.502H33.97v-3.003h4.004v1.502Zm12.011 0v1.502h-4.004v-3.003h4.004v1.502ZM9.127 34.158c-.506.226-1.028.863-1.124 1.372-.042.225-.058 1.261-.036 2.302.044 2.06.102 2.243.902 2.84.324.242.513.258 3.08.258 2.566 0 2.755-.016 3.08-.258.83-.62.861-.733.861-3.183 0-2.06-.02-2.26-.258-2.579-.628-.84-.697-.859-3.535-.892-1.963-.022-2.68.011-2.97.14Zm12.012 0c-.506.226-1.029.863-1.124 1.372-.043.225-.059 1.261-.037 2.302.045 2.06.103 2.243.902 2.84.325.242.514.258 3.08.258 2.567 0 2.756-.016 3.08-.258.831-.62.862-.733.862-3.183 0-2.06-.02-2.26-.258-2.579-.628-.84-.698-.859-3.536-.892-1.962-.022-2.68.011-2.97.14Zm12.011.004c-.504.22-1.028.858-1.124 1.367-.042.226-.059 1.262-.036 2.303.036 1.679.07 1.931.299 2.237.41.55.859.821 1.47.89.49.055.611.02.89-.258.421-.422.427-.99.015-1.403-.17-.169-.395-.307-.5-.307-.165 0-.194-.23-.194-1.502v-1.501h2.195c2.164 0 2.2-.005 2.502-.307.194-.194.308-.45.308-.694 0-.244-.114-.5-.308-.694-.305-.305-.321-.307-2.72-.302-1.724.003-2.524.052-2.797.171Zm11.683.011c-4.633.78-8.606 4.135-10.127 8.55-.931 2.704-.95 5.753-.05 8.397 1.481 4.356 5.155 7.631 9.636 8.59 3.508.751 7.333-.046 10.26-2.138.884-.632 2.392-2.136 3-2.992 1.106-1.555 2.02-3.85 2.31-5.791.476-3.214-.46-6.897-2.411-9.494-.667-.886-2.282-2.46-3.108-3.029-2.676-1.84-6.287-2.635-9.51-2.093ZM13.95 37.488v1.502H9.947v-3.003h4.004v1.501Zm12.011 0v1.502h-4.004v-3.003h4.004v1.501Zm23.71-1.152c4.072 1.115 6.93 4.004 8.019 8.107.342 1.291.323 3.907-.039 5.244-1.082 4-3.98 6.898-7.98 7.98-1.337.362-3.953.381-5.244.039-4.833-1.283-8.104-5.197-8.42-10.076-.2-3.102.96-6.123 3.222-8.385 1.648-1.648 3.523-2.643 5.813-3.084 1.174-.226 3.483-.139 4.63.175Zm3.441 6.243c-.103.037-1.975 1.848-4.16 4.024l-3.972 3.958-1.846-1.842c-2.132-2.127-2.388-2.262-3.044-1.606-.68.68-.563.874 2.113 3.544 2.133 2.127 2.392 2.346 2.779 2.346.394 0 .763-.335 4.788-4.348 2.398-2.391 4.441-4.5 4.54-4.686.259-.49.223-.7-.187-1.11-.352-.352-.608-.422-1.01-.28Zm-43.986.587c-.506.225-1.028.863-1.124 1.371-.042.226-.058 1.262-.036 2.302.044 2.06.102 2.244.902 2.84.324.243.513.259 3.08.259 2.566 0 2.755-.016 3.08-.258.83-.62.861-.733.861-3.183 0-2.061-.02-2.26-.258-2.58-.628-.84-.697-.858-3.535-.89-1.963-.024-2.68.01-2.97.139Zm12.012 0c-.506.225-1.029.863-1.124 1.371-.043.226-.059 1.262-.037 2.302.045 2.06.103 2.244.902 2.84.325.243.514.259 3.08.259 2.567 0 2.756-.016 3.08-.258.831-.62.862-.733.862-3.183 0-2.061-.02-2.26-.258-2.58-.628-.84-.698-.858-3.536-.89-1.962-.024-2.68.01-2.97.139Zm-7.188 3.33v1.502H9.947v-3.003h4.004v1.502Zm12.011 0v1.502h-4.004v-3.003h4.004v1.502Z" fill="#1199FC"/></svg>